<?xml version="1.0" encoding="utf-8"?>
<!-- Generator: Adobe Illustrator 21.0.0, SVG Export Plug-In . SVG Version: 6.00 Build 0)  -->
<svg version="1.1" id="圖層_1" xmlns="http://www.w3.org/2000/svg" xmlns:xlink="http://www.w3.org/1999/xlink" x="0px" y="0px"
	 viewBox="0 0 251.3 148.6" style="enable-background:new 0 0 251.3 148.6;" xml:space="preserve">
<style type="text/css">
	.st0{fill:#7ECEF4;}
	.st1{fill:#0B318F;}
	.st2{fill:#FFFFFF;}
	.st3{fill:#11337F;}
</style>
<g>
	<g>
		<g>
			<polygon class="st0" points="113.1,6.2 138.8,6.2 138.8,48.2 128.1,37.5 128.1,16.9 123.8,16.9 123.8,39.3 138.8,54.3 
				138.8,91.8 113.1,91.8 113.1,49.8 123.8,60.5 123.8,81.1 128.1,81.1 128.1,58.7 113.1,43.7 			"/>
			<polygon class="st0" points="143,27.6 143,38.3 153.7,38.3 153.7,59.7 143,59.7 143,70.4 164.4,70.4 164.4,27.6 			"/>
			<polygon class="st0" points="108.8,70.4 108.8,59.7 98.1,59.7 98.1,38.3 108.8,38.3 108.8,27.6 87.4,27.6 87.4,70.4 			"/>
		</g>
	</g>
	<g>
		<path class="st1" d="M153.6,63c0,2-1.6,3.7-3.7,3.7h-48.1c-2,0-3.7-1.6-3.7-3.7V34.9c0-2,1.6-3.7,3.7-3.7H150c2,0,3.7,1.6,3.7,3.7
			L153.6,63L153.6,63z"/>
		<g>
			<path class="st2" d="M119,36.3h-6.2c0,0-6,0.1-9.1,4.9c0,0-3,3.7-2.6,8.2c0,0,0,5.4,3.8,8.8c0,0,1.9,2.1,5.1,2.9
				c0,0,0.8,0.2,2.4,0.5h6.6v-6.2h-5.3c0,0-4.7,0.3-6.1-5.6c0,0-0.6-4.4,4-6.8c0,0,1.9-0.7,3-0.5h4.4C119,42.5,119,36.3,119,36.3z"
				/>
			<path class="st2" d="M135.1,36.3h-8.5c0,0-2.6,0.1-3.2,0.8c0,0-2.4,1.4-2.9,3.6c0,0-0.4,2.5,0.3,3.8c0,0,0.5,1.6,2.4,3.7l4.5,5.3
				c0,0,0.4,1.3-0.3,1.9h-7.1v6.3h8.2c0,0,4-0.5,5.5-3.2c0,0,3-3.2-0.6-7.5l-5.9-7.2c0,0-0.7-0.9,0.4-1h7.1L135.1,36.3z"/>
			<path class="st2" d="M150.8,36.3l-10.3,0.1c0,0-3.7-0.3-3.8,3.1l-0.2,18.9c0,0-0.2,3,2.9,3.2h11.3l0.1-6.3l-7.9,0.1v-3.3l7.9,0.1
				V46h-7.7v-3.4h7.7V36.3z"/>
		</g>
	</g>
</g>
<g>
	<path class="st3" d="M180.1,137.5c0.2-0.1,0.3-0.3,0.3-0.6c0-0.3,0.2-0.5,0.2-0.7l0,0c0.3,0,0.3-0.3,0.5-0.6c0,0,0-0.1,0.1-0.1
		c0.2-0.2,0.6-0.5,0.8-0.6c0.1-0.1,0.5-0.1,0.6,0.1c0.1,0.1,0.3,0.2,0.5,0.3c0,0.1,0,0.3,0,0.6c0.1,0,0.2-0.1,0.3-0.1
		c0.2-0.1,0.5-0.1,0.7-0.2c0.3-0.1,0.6-0.1,0.9-0.1c0.2,0,0.3-0.1,0.6-0.1c0.1-0.1,0.2-0.1,0.2-0.1c0.2,0,0.3,0,0.6-0.1
		c0.1-0.1,0.2,0,0.3,0.1c0.1,0.1,0.1,0.1,0,0.2c0,0,0,0.1,0,0.2c0.2,0.1,0.3,0,0.5-0.1c0.1,0,0.2-0.2,0.3-0.3c0.1,0,0.2-0.1,0.3-0.1
		c0.3,0,0.7-0.1,0.9,0.2c0.1,0.1,0.2,0.2,0.3,0.3c0.1,0,0.2,0.1,0.2,0.2s0,0.1,0.1,0.2c0.1,0.1,0.1,0.2,0.1,0.5s0,0.5,0.1,0.6
		c0,0.1,0,0.2,0,0.3c-0.1,0.2-0.1,0.3-0.1,0.6s0.1,0.5-0.1,0.7c0.1,0.2-0.1,0.5-0.1,0.7s-0.1,0.5-0.2,0.6c-0.2,0.2-0.2,0.5-0.5,0.7
		c-0.1,0.2-0.2,0.3-0.3,0.5c-0.1,0.1-0.2,0.2-0.3,0.5c-0.2,0-0.3,0.1-0.5,0.3c-0.2,0.2-0.6,0.3-0.8,0.6c0,0-0.1,0-0.2,0
		c-0.1,0-0.2,0-0.2,0.1c0,0-0.1,0-0.2,0c-0.3,0-0.8,0-1.2,0c-0.2,0.5-0.3,0.9-0.6,1.4c0.1,0,0.2,0.1,0.2,0.2
		c0.1,0.1,0.2,0.3,0.5,0.3h0.1c0,0.1,0.1,0.3,0,0.5c-0.1,0.1-0.2,0.1-0.3,0.1c-0.1-0.1-0.2-0.1-0.2-0.1c-0.9,0-1.9,0-2.8,0
		c-0.1,0-0.2,0-0.2,0.1h-0.1c-0.1-0.1-0.2-0.1-0.3-0.1c0-0.1,0-0.2,0-0.2c0.2-0.2,0.6-0.2,0.8-0.2c0.2,0,0.2-0.1,0.3-0.3
		c0.1-0.2,0.1-0.5,0.2-0.8c0.1-0.2,0.1-0.3,0.2-0.6c0-0.1,0-0.2,0-0.3c0-0.1,0-0.2,0.1-0.3c0.1-0.3,0.3-0.6,0.2-1
		c0-0.1,0.1-0.2,0.1-0.5l0.1-0.1c0-0.2,0.1-0.5,0.2-0.6V140c-0.1-0.2,0-0.6,0.1-0.8c0.1-0.3,0.1-0.6,0.3-0.9
		c0.1-0.1,0.1-0.5,0.1-0.6c0-0.1,0-0.1,0.1-0.2s0.1-0.2,0.2-0.3c-0.1-0.1-0.1-0.1-0.2-0.2c0-0.1,0-0.2,0-0.3
		c-0.2-0.1-0.6,0.1-0.8-0.1v0.1c0,0.2-0.1,0.6-0.2,0.8l0,0c0,0.3-0.2,0.5-0.5,0.6c-0.2,0.1-0.3,0.2-0.6,0c-0.1-0.1-0.2,0-0.3,0
		c-0.1-0.2-0.2-0.3-0.5-0.6c-0.1,0.1-0.1,0.2-0.2,0.3c0,0,0,0.1-0.1,0.1c-0.1,0.1-0.3,0.3-0.2,0.6v0.1c-0.1,0.1-0.2,0.3-0.3,0.5
		c-0.1,0.1-0.2,0.2-0.2,0.5c0,0.1-0.1,0.3-0.2,0.5c-0.1,0.1-0.1,0.2-0.1,0.3s-0.1,0.2-0.3,0.2c-0.1,0.2-0.1,0.6-0.2,0.8v0.1
		c0,0.2,0,0.3-0.1,0.6c-0.1,0.1,0,0.3,0,0.5c-0.1,0-0.2,0-0.2,0.1c-0.1,0.1-0.1,0.1-0.2,0c0,0-0.2-0.1-0.2,0
		c-0.1,0.1-0.2,0.1-0.3,0.1c-0.3,0-0.6,0-0.9,0c-0.1,0-0.2,0-0.2-0.1c-0.1-0.1-0.1-0.1,0-0.2s0.2-0.2,0.2-0.5c0-0.1,0.1-0.2,0.1-0.3
		c0-0.1,0-0.2,0.1-0.3s0.1-0.3,0.1-0.6c0-0.2,0.1-0.3,0.1-0.6c0,0,0-0.1,0.1-0.1c0.1-0.1,0.1-0.2,0.2-0.5c0-0.3,0.1-0.6,0.2-0.9
		l0.1-0.1c0-0.3,0.1-0.6,0.1-0.8c0,0,0-0.1,0.1-0.1v-0.1c0-0.1-0.1-0.3-0.1-0.5c0.1-0.1,0.1-0.2,0.1-0.3c-0.3-0.2-0.7-0.1-1-0.2
		c-0.1-0.2,0.1-0.3,0.1-0.5c0.1-0.2,0.2-0.2,0.5-0.2c0.1,0,0.2,0,0.3,0h0.1c0.2-0.2,0.5-0.1,0.7-0.1c0.1,0,0.1,0,0.2-0.1h0.1
		c0.3,0,0.7,0,1,0c0,0.2,0,0.5-0.1,0.7s-0.1,0.6-0.2,0.8c-0.1,0.2-0.1,0.3-0.1,0.6c0,0.1-0.1,0.1-0.1,0.2
		C180,137.4,180.1,137.5,180.1,137.5c-0.1,0-0.1,0-0.2,0c0,0.2,0,0.2,0.2,0.2C180.1,137.6,180.1,137.6,180.1,137.5z M186.1,138v0.1
		c0,0.1,0,0.3-0.1,0.5c0,0,0,0.1,0,0.2s0,0.1,0,0.2c-0.2,0.2-0.2,0.6-0.3,0.9c0,0.1-0.1,0.1-0.1,0.2c0,0.2,0,0.5-0.2,0.6
		c0.1,0.1,0.2,0.2,0,0.3c0,0,0,0.1,0,0.2s0,0.1,0,0.2c-0.1,0.3-0.1,0.3,0.1,0.6c0.1,0.1,0.1,0.1,0.3,0c0.1-0.1,0.2-0.2,0.5-0.2
		c0.1,0,0.2-0.1,0.2-0.2c0-0.1,0.1-0.2,0.2-0.3c0.1-0.1,0.2-0.1,0.2-0.2s0.1-0.2,0.1-0.3l0.1-0.1c0-0.2,0.1-0.3,0.1-0.5
		c0.1-0.2,0.1-0.5,0.5-0.5c0-0.3,0-0.6,0.1-0.8c0-0.6,0-1.2,0-1.7c-0.1-0.1-0.2-0.1-0.3-0.2c-0.1-0.1-0.2-0.1-0.3-0.1
		c-0.2,0.1-0.3,0.1-0.5,0.3c0,0,0,0.1-0.1,0.1c-0.1,0.2-0.1,0.3-0.2,0.6C186.4,137.8,186.4,137.8,186.1,138z M186.7,141.8
		c0.1,0.1,0.1,0.1,0.2,0C187,141.8,186.8,141.8,186.7,141.8z"/>
	<path class="st3" d="M103.7,131.9c0-0.3,0-0.3,0.2-0.5c0.2-0.1,0.5-0.1,0.6,0c0,0,0.1,0,0.2,0c0.9,0,1.7,0,2.7,0
		c0.1,0,0.2,0,0.3-0.1c0,0,0.1,0,0.2,0c1.3,0,2.4,0,3.7,0c0.1,0,0.2,0,0.3,0.1c0.1,0.1,0.1,0.1,0,0.2c-0.1,0.1-0.1,0.2-0.1,0.2
		c0,0.2,0,0.5-0.1,0.7c-0.1,0.2-0.2,0.6-0.2,0.8c0,0.2-0.1,0.6-0.3,0.7c0,0-0.1,0.1-0.1,0c-0.2,0-0.5-0.3-0.5-0.6s-0.1-0.5-0.3-0.7
		c-0.2-0.2-0.3-0.3-0.6-0.6l-0.1-0.1c-0.2,0-0.5,0-0.7-0.1c-0.1,0-0.1-0.1-0.2-0.1c-0.1,0-0.1,0-0.2,0c-0.1,0-0.2,0-0.3,0.1
		c0,0-0.1-0.1-0.2-0.1c-0.1,0-0.5,0.2-0.5,0.3c0,0.2-0.1,0.5-0.2,0.7v0.1c0,0.2-0.1,0.5-0.2,0.8c-0.1,0.2-0.2,0.5-0.1,0.7
		c0,0.2-0.1,0.5-0.2,0.7c0,0.2-0.2,0.5-0.1,0.7c0.1,0,0.1,0,0.2,0l0,0c0.1,0.1,0.2-0.1,0.5,0c0.2,0,0.5-0.1,0.7-0.2
		c0.1-0.1,0.3,0,0.5-0.1c0,0,0.1-0.1,0.2-0.1c0.1-0.1,0.1-0.1,0.2-0.1c0.1,0,0.3-0.1,0.2-0.3c0-0.2,0.1-0.3,0.2-0.5
		c0.1-0.1,0.2-0.1,0.5-0.1c0,0.2,0.1,0.3-0.1,0.6c-0.1,0.1,0,0.2,0,0.3s0,0.3-0.1,0.5c-0.1,0.3-0.2,0.6-0.2,1c0,0.1,0,0.3-0.1,0.5
		s-0.1,0.2-0.1,0.3c-0.1,0.2-0.1,0.6-0.3,0.8c-0.1,0.1-0.2,0.1-0.3,0.1c-0.1,0-0.2-0.1-0.3-0.1c0,0,0,0,0-0.1
		c0.1-0.1,0.2-0.2,0.2-0.3c0-0.2,0-0.5-0.1-0.7c-0.1-0.1-0.2-0.1-0.3-0.1c-0.1,0-0.1,0-0.2-0.1c-0.1-0.1-0.2-0.1-0.3-0.1
		c-0.3,0-0.7,0-1.2,0c0.2,0.2,0,0.3,0,0.5c0,0.2-0.1,0.2-0.2,0.3c0,0.1,0.2,0.2,0,0.3v0.1c0.1,0.3-0.2,0.6-0.3,0.9c0,0,0,0,0,0.1
		c0,0.2-0.1,0.5-0.1,0.6c-0.1,0.3-0.2,0.7-0.3,0.9c0,0.1-0.1,0.2,0,0.2c0.1,0.1,0.1,0.3,0.1,0.5c0.2,0.2,0.5,0.2,0.8,0.2
		c0.1,0,0.1,0,0.2-0.1c0,0,0,0,0.1,0c0.3,0.1,0.6-0.1,0.8-0.1c0.2-0.1,0.6-0.1,0.8-0.2h0.1c0.1-0.2,0.3-0.3,0.6-0.3l0.1-0.1
		c0.1-0.1,0.2-0.2,0.3-0.3s0.1-0.1,0.2-0.1c0.1,0,0.1,0,0.2-0.1c0.2-0.2,0.5-0.5,0.7-0.7c0.1-0.1,0.3-0.1,0.3,0.1c0,0.1,0,0.2,0,0.3
		c-0.1,0.1-0.1,0.2-0.1,0.3v0.1c-0.2,0.2-0.2,0.6-0.5,0.8l-0.1,0.1c0,0.2-0.1,0.5-0.2,0.6c0,0,0,0.1,0,0.2s-0.1,0.2-0.3,0.2
		c-0.1,0-0.2,0-0.5,0c-1.4,0-2.8,0-4.3,0c-0.1,0-0.2,0-0.3-0.1c-0.1,0-0.2,0-0.3,0c-0.1,0-0.1,0.1-0.2,0.1c-0.8,0-1.5,0-2.3,0h-0.1
		c0-0.3,0.2-0.6,0.5-0.6c0.1,0,0.3,0,0.5-0.1c0-0.1,0.1-0.1,0.2-0.1c0,0,0-0.1,0-0.2c0-0.2,0-0.6,0.2-0.8c0,0,0,0,0-0.1
		c0-0.3,0.1-0.6,0.2-0.8v-0.1c0-0.3,0.1-0.6,0.2-0.9c0.1-0.2,0.1-0.5,0.1-0.6s0.1-0.3,0.1-0.5c0.1-0.2,0.2-0.5,0.2-0.8
		c0-0.1,0-0.1,0.1-0.2c0.2-0.2,0.3-0.5,0.2-0.7c0-0.2,0-0.3,0.2-0.5c0,0,0-0.1,0.1-0.2c0-0.1,0-0.3,0.1-0.5v-0.1
		c0-0.2,0.1-0.5,0.2-0.7c0-0.1,0.1-0.3,0.1-0.5c0.1-0.1,0.1-0.3,0.1-0.6l0,0c0.2-0.2,0-0.3-0.1-0.6c0-0.1-0.1-0.1-0.2-0.1
		C104.2,131.9,103.9,131.9,103.7,131.9z"/>
	<path class="st3" d="M70.7,134.8c-0.2,0-0.5,0-0.6,0c-0.1-0.5-0.1-0.9-0.2-1.4c0-0.2-0.1-0.6-0.2-0.8c0-0.1-0.1-0.1-0.1-0.1
		c-0.2-0.1-0.5-0.2-0.7-0.5c0,0,0,0-0.1,0c-0.3,0-0.8-0.2-1.2-0.1c0,0-0.1,0-0.1,0.1c-0.1,0.1-0.2,0.3-0.5,0.3
		c0,0.1-0.2,0.2-0.2,0.5c-0.1,0.2-0.1,0.5-0.1,0.6c0,0.2,0,0.3,0,0.6c0,0.2,0.1,0.5,0.2,0.7c0,0.1,0.1,0.1,0.1,0.2
		c0,0.2,0.1,0.3,0.3,0.3c0.1,0,0.1,0,0.2,0c0,0.3,0.2,0.7,0.5,0.9c0.1,0,0.2,0.1,0.2,0.1c0,0.2,0.3,0.2,0.3,0.5
		c0,0.1,0.2,0.1,0.2,0.2c0.1,0,0.1,0.2,0.2,0.2s0.2,0.1,0.2,0.3c0.1,0.1,0.2,0.2,0.2,0.2c0.1,0.1,0.2,0.2,0.1,0.3
		c0,0.2,0.1,0.3,0.2,0.5c0,0.1,0.1,0.2,0,0.3c-0.1,0.1-0.1,0.2-0.1,0.3c0,0.1,0,0.2-0.1,0.3c0,0,0,0.1,0,0.2c0,0.2,0,0.3-0.2,0.5
		l0,0c0,0.2-0.2,0.3-0.2,0.6c-0.1,0.2-0.2,0.3-0.5,0.5c-0.2,0.1-0.3,0.2-0.6,0.5c-0.1,0.1-0.1,0.1-0.2,0.1c-0.2,0-0.3,0.1-0.5,0.2
		c-0.1,0.1-0.2,0.2-0.3,0.1c0,0-0.2,0-0.3,0c-0.1,0-0.1,0.1-0.2,0.1c-0.2,0-0.5,0.1-0.6,0.2c0,0-0.1,0.1-0.1,0
		c-0.2-0.2-0.5-0.1-0.7-0.1c-0.2,0-0.3,0-0.5-0.1c0,0-0.1,0-0.2,0c-0.1,0-0.3,0-0.5-0.1c0,0-0.1,0-0.2,0c-0.1,0-0.1-0.1-0.2-0.1
		c0,0-0.1,0-0.2,0c-0.2,0-0.5,0-0.7,0s-0.5,0.1-0.5,0.3c-0.1,0-0.2,0-0.3,0c-0.2,0-0.3-0.2-0.2-0.5c0.1-0.2,0.2-0.5,0.2-0.8
		c0-0.2,0-0.5,0.1-0.6v-0.1c0-0.2,0.1-0.6,0.2-0.8c0-0.2,0.2-0.5,0.1-0.7c0-0.1,0-0.2,0.1-0.3c0.1-0.1,0-0.2,0.1-0.5
		c0.2,0,0.5,0,0.7,0c0.1,0.1,0,0.3,0.1,0.5c0,0,0,0.1-0.1,0.2c0,0.1,0.1,0.2,0.1,0.3s0,0.2,0.1,0.3v0.1c-0.1,0.2-0.1,0.3,0.1,0.5
		c0.2,0.2,0.3,0.5,0.5,0.7c0.1,0.1,0.2,0.1,0.3,0.2c0.2,0.1,0.3,0.1,0.6,0.3c0,0,0.1,0.1,0.2,0.1c0.2,0,0.6,0,0.8,0
		c0.1,0,0.1-0.1,0.2-0.1c0.3-0.1,0.6-0.3,0.8-0.6c0.1-0.1,0.2-0.1,0.3-0.2c0.2-0.3,0.1-0.8,0.1-1.3c0-0.2-0.1-0.3-0.2-0.5
		c0-0.1-0.2-0.1-0.2-0.3l0,0c-0.3,0-0.3-0.5-0.6-0.6c-0.1-0.1-0.1-0.2-0.3-0.2l0,0c0-0.2-0.2-0.2-0.3-0.3s-0.2-0.2-0.3-0.3
		c0,0,0-0.1-0.1-0.1c0,0,0-0.1-0.1-0.1c-0.3-0.1-0.5-0.3-0.6-0.7c0,0,0-0.1-0.1-0.1c-0.1-0.1-0.1-0.2-0.2-0.3c0-0.2-0.2-0.5-0.2-0.7
		l0,0c0-0.3,0-0.8,0-1.2c0-0.2,0.1-0.5,0.2-0.6c0-0.1,0.1-0.3,0.1-0.5l0.1-0.1c0.2,0,0.2-0.1,0.3-0.2c0.1-0.1,0.2-0.2,0.3-0.2
		l0.1-0.1c0.1-0.2,0.2-0.2,0.5-0.3c0.2,0,0.3-0.1,0.6-0.2c0.1,0,0.1,0,0.2,0c0.5,0,0.8,0,1.3,0c0.2,0,0.3,0.1,0.6,0.1
		c0.2,0.1,0.5,0.2,0.8,0.2c0.1,0,0.1,0,0.2,0.1c0.1,0,0.1,0,0.2,0c0.2,0,0.5,0,0.7,0s0.3-0.1,0.3-0.2c0-0.1,0.1-0.2,0.3-0.2
		c0.1,0,0.1,0,0.2-0.1c0.1,0.1,0.1,0.2,0.2,0.2c-0.2,0.1-0.2,0.3-0.2,0.6s-0.1,0.3-0.1,0.6c0,0.1-0.1,0.1-0.1,0.2s0,0.3-0.1,0.5v0.1
		c0,0.1,0,0.3-0.1,0.5c0,0,0,0.1,0,0.2s0,0.2-0.1,0.2c0,0,0,0,0,0.1C70.8,134.5,70.7,134.7,70.7,134.8z"/>
	<path class="st3" d="M29.8,140.4c0.1,0,0.1,0,0.2-0.1c0-0.2,0-0.6,0.2-0.8c0,0,0-0.1,0-0.2c-0.1-0.1,0.1-0.2,0.1-0.5
		c0-0.1,0-0.3,0.1-0.3c0.1-0.2,0.2-0.5,0.2-0.7c0.1-0.2,0.1-0.5,0.2-0.7c0.1-0.2,0.1-0.5,0.1-0.7v-0.1c-0.2-0.1-0.3,0-0.5,0.1
		c-0.1,0.1-0.2,0.2-0.3,0.3c-0.2,0.2-0.3,0.6-0.6,0.8v0.1c-0.2,0.1-0.2,0.3-0.2,0.5s-0.1,0.2-0.2,0.2c-0.1,0.1-0.2,0.2-0.2,0.5v0.1
		c-0.2,0.1-0.2,0.3-0.2,0.6c-0.1,0.1,0,0.2,0,0.3c-0.2,0.2-0.3,0.6-0.3,0.9c0,0.1,0,0.3-0.1,0.5s-0.1,0.2-0.1,0.5
		c0,0.1-0.1,0.2-0.3,0.2c-0.5,0-0.8,0-1.3,0c-0.2,0-0.5,0-0.7,0c-0.1-0.2,0-0.5,0.1-0.7c0.1-0.2,0.2-0.5,0.2-0.7
		c0.1-0.2,0.1-0.5,0.1-0.7c0-0.2,0.2-0.2,0.3-0.3c0-0.1,0-0.3,0-0.5c0-0.2,0.1-0.5,0.2-0.7l0.1-0.1c0-0.1,0.1-0.2,0.1-0.3
		c0.1-0.1,0.1-0.3,0.1-0.5c0.1-0.3,0.2-0.8,0.3-1.2c0.1-0.1,0.1-0.3,0.2-0.6c0-0.2,0.2-0.5,0.1-0.7v-0.1c0.2-0.2,0.2-0.6,0.3-0.8
		c0.1-0.3,0.1-0.7,0.3-0.9V133c0-0.1,0-0.2,0.1-0.3c0.1-0.1,0.1-0.2,0-0.5c-0.1-0.1-0.1-0.1-0.2-0.2s-0.1-0.1-0.2-0.1
		s-0.2-0.1-0.2-0.2c0-0.1,0.1-0.2,0.3-0.2c0.1,0,0.2,0,0.5,0c0.1,0,0.3,0,0.5-0.1c0.1,0,0.2,0,0.3,0c0.2,0,0.3,0,0.6-0.1
		c0.1-0.1,0.2,0,0.3,0c0.1,0,0.3,0.1,0.5-0.1h0.1c0.1,0,0.1,0.1,0.2,0.1c-0.1,0.2-0.2,0.3-0.2,0.6c0,0.2-0.2,0.3-0.3,0.6
		c0,0.1,0.1,0.1,0,0.2v0.1c0,0.2-0.1,0.5-0.2,0.7v0.1c0,0.2-0.1,0.5-0.2,0.7c-0.1,0.2-0.1,0.5-0.1,0.6c-0.1,0.2-0.1,0.5-0.2,0.7l0,0
		c0,0,0,0.1-0.1,0.1c0,0.1-0.1,0.3-0.1,0.5c0.2,0.1,0.3,0,0.3-0.2c0.1-0.3,0.3-0.5,0.7-0.7c0.2-0.1,0.5-0.3,0.7-0.3
		c0.1,0,0.1,0,0.2-0.1c0.1,0,0.2,0,0.2-0.1l0,0c0.1,0.1,0.3,0,0.6,0.1s0.5,0.2,0.6,0.3c0,0,0,0.1,0,0.2s-0.1,0.2,0.1,0.5
		c0,0,0,0.1-0.1,0.1c0,0.2,0,0.6-0.1,0.8c-0.1,0.2-0.1,0.5-0.1,0.8c0,0.1-0.1,0.2-0.1,0.3s-0.1,0.1-0.1,0.2c0,0.2,0,0.3-0.2,0.6
		c-0.1,0-0.1,0.2,0,0.3c0,0.1,0,0.2-0.1,0.3c0,0-0.1,0.1-0.1,0.2s-0.1,0.2-0.1,0.5c0,0.1-0.2,0.2-0.1,0.5l-0.1,0.1
		c0,0.1,0.1,0.2,0.1,0.3c0.1,0,0.2,0,0.3,0c0-0.2,0-0.5,0.2-0.7c0.2-0.1,0.5,0,0.7,0.1c-0.1,0.1-0.1,0.2-0.2,0.2l-0.1,0.1
		c0,0.2-0.1,0.3-0.2,0.3c-0.1,0.1-0.1,0.1-0.1,0.2c0,0,0,0.1-0.1,0.1s-0.1,0.1-0.2,0.1c-0.1,0.1-0.3,0.2-0.5,0.2
		c-0.2,0.1-0.6,0.1-0.8,0.1l-0.1,0.1c-0.1,0-0.1,0-0.2,0c-0.1-0.1-0.2-0.1-0.2-0.1h-0.1c-0.2-0.3-0.6-0.7-0.5-1.2v-0.1
		C29.9,140.6,29.9,140.6,29.8,140.4z"/>
	<path class="st3" d="M121.1,144.7c-0.1,0.1-0.1,0.2-0.2,0.2c-0.1,0.1-0.3,0.2-0.6,0.1c-0.1,0-0.1,0-0.2,0c-0.9,0-1.7,0-2.7,0
		c-0.1,0-0.1,0-0.2,0c-0.2,0.2-0.5,0.1-0.6,0.1c0-0.3,0.1-0.6,0.5-0.6c0.2,0,0.5,0,0.7,0c0-0.1,0-0.2,0-0.2
		c-0.1-0.3,0.1-0.7,0.2-0.9c0.1-0.2,0.1-0.3,0.2-0.6c0.1-0.2,0.2-0.3,0.1-0.6l0.1-0.1c0.1-0.2,0.1-0.2,0-0.5c0.1,0,0.1,0,0.2,0
		c0,0,0,0,0-0.1c0.1-0.1-0.2-0.2,0-0.5c0.1-0.1,0-0.3,0.1-0.5c0,0,0-0.1,0.1-0.1c0.1-0.1,0.1-0.2,0.1-0.3c0-0.2,0-0.3,0.1-0.5v-0.1
		c0-0.2,0.1-0.3,0.2-0.6c0,0,0,0,0-0.1c0-0.5,0-0.5,0.2-0.8c0,0,0-0.1,0-0.2c0-0.3,0.1-0.6,0.3-0.8c0.1-0.1,0.1-0.3,0-0.5
		c0-0.1-0.1-0.2-0.3-0.2h-0.1c-0.3,0-0.3-0.1-0.3-0.5c0.2-0.1,0.6-0.2,0.8-0.3c0.2-0.1,0.5-0.1,0.7-0.1c0.1,0,0.1,0,0.2,0
		c0.1,0,0.1,0,0.2-0.1c0.1,0,0.2,0,0.3-0.1c0,0,0.2,0,0.3,0c0.1,0,0.3,0.1,0.5-0.1h0.1c0.1,0.1,0.2,0.1,0.5,0.2
		c-0.1,0.1-0.1,0.2-0.2,0.3c0.2,0,0.3,0.1,0.5-0.1c0.2-0.2,0.5-0.5,0.8-0.3c0,0,0,0,0.1,0c0.1,0,0.2-0.2,0.5,0
		c0.1,0.1,0.2,0,0.5,0.1c0.1,0,0.1,0,0.1,0.1l0.1,0.1c0.1,0.1,0.2,0.1,0.2,0.3c0,0.1,0.1,0.3,0.1,0.3c0.1,0.1,0.1,0.2,0.1,0.2
		c0,0.6,0,1.3,0,1.9c0,0.3-0.2,0.6-0.2,0.8c-0.1,0.2-0.1,0.3-0.2,0.6c0,0.1-0.1,0.2-0.1,0.2c-0.1,0.1-0.2,0.2-0.2,0.3
		s-0.1,0.2-0.2,0.3c-0.1,0.1-0.2,0.3-0.3,0.5c-0.2,0.2-0.5,0.3-0.6,0.5c-0.2,0.2-0.3,0.3-0.7,0.3c-0.1,0.1-0.2,0.2-0.5,0.2
		c-0.1,0-0.1,0.1-0.2,0.1c-0.1,0-0.2,0-0.3,0.1c0,0-0.1,0-0.2,0c-0.3,0-0.8,0-1.2,0c0,0.2-0.1,0.6-0.2,0.8c-0.1,0.2-0.1,0.5,0,0.7
		l0,0c0,0.2,0.2,0.3,0.5,0.3C120.9,144.5,121,144.5,121.1,144.7z M123.4,138.3c-0.1-0.1-0.1-0.2,0-0.3c0-0.3,0-0.7,0-1
		c-0.2-0.1-0.3-0.5-0.7-0.5c-0.1,0-0.2,0.1-0.3,0.1c-0.2,0.2-0.5,0.5-0.3,0.8v0.1c-0.1,0.2-0.1,0.5-0.2,0.6c0,0.2-0.1,0.3-0.1,0.6
		s-0.2,0.3-0.2,0.5c0,0.3-0.1,0.6-0.2,0.9c0,0.1-0.2,0.1,0,0.3l0,0c-0.1,0.2-0.2,0.5-0.2,0.7v0.1c-0.2,0.3-0.1,0.3,0.1,0.6
		c0.1,0.1,0.3,0.1,0.5,0c0.1-0.1,0.1-0.1,0.3-0.1c0.1,0,0.2-0.1,0.2-0.3c0-0.1,0-0.2,0.1-0.2l0.1-0.1c0.1-0.2,0.2-0.5,0.5-0.7
		c0,0,0.1-0.1,0.1-0.2c0-0.3,0.1-0.6,0.5-0.7l0,0c0-0.1,0.1-0.3,0.1-0.5c0-0.2,0-0.3,0-0.6C123.3,138.5,123.3,138.4,123.4,138.3z"/>
	<path class="st3" d="M21.2,132.3c0,0.1,0,0.2-0.2,0.2c-0.1,0-0.2,0.2-0.3,0.3c0,0.1-0.1,0.2-0.1,0.2c-0.3,0-0.3,0.3-0.5,0.6
		c0,0.1-0.1,0.1-0.1,0.1c-0.2,0.2-0.3,0.6-0.6,0.9c-0.1,0.2,0,0.5-0.3,0.6c-0.1,0.3-0.3,0.6-0.3,0.9v0.1c-0.2,0.3-0.1,0.8-0.1,1.3
		c0,0.1,0,0.2-0.1,0.3c-0.1,0.1-0.1,0.3,0,0.5c0.1,0.2,0.1,0.5,0.1,0.7c0,0.5,0.2,0.7,0.3,1l0.1,0.1c0.1,0.1,0.1,0.1,0.2,0.2
		c0.1,0.1,0.2,0.1,0.2,0.1c0.1,0.1,0.1,0.1,0.2,0.1c0.2,0,0.3,0.1,0.6,0.2c0.1,0,0.1,0,0.2,0c0.5,0,0.8,0,1.3,0c0.1,0,0.1,0,0.2,0
		c0.1-0.1,0.2-0.1,0.2-0.1c0.1,0,0.3-0.1,0.5-0.1c0,0,0-0.1,0.1-0.2c0.1,0,0.2,0,0.3,0c0-0.2,0.2-0.2,0.3-0.3
		c0.1-0.1,0.2-0.1,0.2-0.2s0.1-0.1,0.1-0.1c0.1-0.1,0.1-0.2,0.2-0.3c0.1,0,0.3,0,0.5,0c0.1,0.2,0,0.5-0.2,0.6
		c-0.1,0.1-0.2,0.3-0.5,0.5c-0.1,0.1-0.3,0.2-0.5,0.5c-0.2,0.3-0.6,0.5-0.9,0.7h-0.1c-0.1,0-0.2,0-0.3,0.1c-0.1,0.1-0.3,0.2-0.6,0.1
		c-0.6,0.2-1.3,0.1-1.9,0.1c-0.1,0-0.1,0-0.2-0.1c-0.1,0-0.1-0.1-0.2,0c-0.2,0-0.5-0.1-0.7-0.2h-0.1h-0.1c-0.2-0.2-0.5-0.2-0.7-0.3
		c-0.1-0.1-0.3-0.2-0.3-0.5c0-0.1-0.1-0.1-0.1-0.2s-0.1-0.1-0.1-0.1c0-0.2-0.1-0.2-0.2-0.2c0-0.2-0.1-0.3-0.1-0.5
		c-0.1-0.2-0.2-0.5-0.3-0.6c-0.1-0.1-0.1-0.3-0.1-0.5c0-0.1,0-0.3,0-0.5v-0.1c-0.1-0.1,0-0.1,0-0.1c0.1-0.1,0.1-0.2,0-0.3
		s-0.1-0.3,0-0.5s0.1-0.3,0-0.5c0,0-0.1-0.1,0-0.1c0.1-0.1,0-0.5,0.2-0.6c0,0,0,0,0.1-0.1c0-0.1-0.1-0.1,0-0.3
		c0.1-0.1,0.1-0.3,0.3-0.6c0-0.2,0.1-0.3,0.2-0.5v-0.1c0-0.3,0.2-0.5,0.5-0.6c0-0.1,0.1-0.3,0.2-0.5c0.1-0.1,0.2-0.2,0.3-0.3
		l0.1-0.1c0-0.1,0.1-0.1,0.1-0.2c0.1-0.1,0.3-0.2,0.5-0.5c0.1-0.1,0.2-0.2,0.3-0.2c0.2,0,0.2-0.1,0.3-0.2c0.1-0.1,0.2-0.1,0.3-0.1
		c0.2-0.1,0.5-0.2,0.7-0.3c0.1,0,0.2-0.1,0.3-0.1c0.2,0,0.3-0.1,0.6-0.2c0.2,0,0.5-0.2,0.7-0.1c0.2,0,0.3,0,0.6,0
		c0.1,0,0.2,0,0.2-0.1c0.2,0,0.6,0,0.8,0c0.1,0.1,0.3,0.1,0.5,0.1c0.3,0,0.6,0.1,0.8,0.2h0.1c0.2,0,0.3,0,0.5,0.1
		c0.1,0.1,0.3,0,0.6,0c0-0.3,0.3-0.3,0.5-0.5s0.2,0,0.3,0.1c0.1,0.1,0,0.1,0,0.2s-0.1,0.3-0.2,0.5c-0.1,0.3-0.1,0.6-0.2,0.9v0.1
		c-0.2,0.1-0.2,0.3-0.2,0.6c0,0.1,0,0.1,0,0.2c0,0,0,0.1-0.1,0.1c-0.1,0.1-0.2,0.2-0.2,0.3s-0.1,0.2-0.2,0.2s-0.2,0-0.3,0
		c0-0.3-0.1-0.7-0.1-1.2c0-0.5-0.2-0.8-0.6-0.9c-0.2-0.1-0.3-0.2-0.6-0.3c-0.1-0.1-0.1-0.1-0.3-0.1c-0.2,0-0.5,0-0.7,0
		c-0.1,0-0.1,0-0.2,0.1h-0.1c-0.3-0.1-0.6,0.2-0.8,0.2C21.6,132.1,21.4,132.3,21.2,132.3z"/>
	<path class="st3" d="M160.5,141.3c0-0.1,0.1-0.1,0.1-0.1l0,0c-0.2,0-0.3-0.2-0.5-0.3c-0.1-0.2-0.2-0.6-0.5-0.7l-0.1-0.1
		c0-0.2-0.1-0.3-0.1-0.5c-0.1-0.1-0.1-0.3-0.1-0.5s0-0.3,0-0.5v-0.1c-0.2-0.5-0.1-0.9-0.1-1.4c0-0.2,0.2-0.5,0.2-0.6l0.1-0.1
		c0-0.2,0-0.3,0.1-0.5c0.1-0.1,0.1-0.3,0.1-0.5s0-0.1,0-0.2c0.2,0,0.3-0.1,0.3-0.3c0.1-0.2,0.2-0.3,0.3-0.5c0.1-0.2,0.3-0.2,0.5-0.6
		c0-0.1,0.1-0.2,0.2-0.2c0.3-0.1,0.5-0.3,0.7-0.6c0.1-0.1,0.3-0.2,0.6-0.3c0.5-0.2,0.9-0.5,1.4-0.7c0.1-0.1,0.3-0.1,0.5-0.2
		c0.2-0.1,0.3-0.1,0.6-0.1c0.2,0,0.5,0.1,0.6-0.1c0,0,0.1,0,0.2,0c0.2,0,0.3,0,0.6-0.1c0.1-0.1,0.3-0.1,0.6,0c0,0,0.1,0,0.2,0
		c0.2,0,0.5-0.1,0.7,0.1c0.1,0,0.2,0,0.2,0c0.2,0,0.5,0.1,0.7,0.2c0.2-0.2,0.5-0.1,0.6-0.1c0.1-0.1,0.1-0.2,0.2-0.3
		c0.1-0.1,0.2,0,0.3,0c0,0.1,0.1,0.2,0,0.3v0.1c0.1,0.2-0.1,0.5-0.1,0.7c-0.1,0.2-0.1,0.6-0.3,0.7v0.1c0,0.2,0,0.3-0.1,0.5
		c-0.1,0.2-0.1,0.3-0.1,0.6c0,0.1-0.1,0.2-0.2,0.2c-0.1,0-0.2,0-0.3-0.1c-0.1-0.1-0.1-0.2,0-0.3s0.1-0.1,0-0.2v-0.1
		c0-0.1,0-0.2-0.1-0.3c0,0,0,0,0-0.1c0-0.2,0-0.3-0.2-0.5c-0.1,0-0.1-0.1-0.1-0.2c-0.1-0.1-0.2-0.3-0.5-0.2c0-0.1,0-0.1-0.1-0.2
		c-0.2-0.1-0.3-0.1-0.6-0.1c-0.2,0-0.3,0-0.6,0c-0.1,0-0.2,0-0.2,0.1h-0.1c-0.1,0-0.2,0-0.5,0.1c-0.2,0.1-0.5,0.2-0.8,0.2
		c-0.2,0-0.3,0.2-0.6,0.2c0,0.2-0.2,0.3-0.3,0.5s-0.1,0.1-0.3,0.2c0,0.3-0.1,0.5-0.5,0.6c0,0.2-0.1,0.3-0.2,0.5
		c-0.1,0.2-0.3,0.3-0.3,0.6l-0.1,0.1l-0.1,0.1c0,0.2-0.1,0.5-0.1,0.6c-0.1,0.2-0.1,0.5-0.1,0.7c0,0.1,0,0.2-0.1,0.2
		c-0.1,0.1-0.1,0.2-0.1,0.3c0,0.1,0,0.3-0.1,0.5c0,0.2-0.1,0.6,0.1,0.8v0.1c-0.1,0.3-0.1,0.6,0,0.8l0,0c-0.1,0.3,0.1,0.5,0.2,0.7
		c0.2,0.2,0.3,0.6,0.6,0.8h0.1c0.1,0,0.2,0,0.2,0.1c0.1,0.1,0.1,0.1,0.2,0.1c0.6,0.2,1,0.1,1.6,0.1c0.1,0,0.2-0.1,0.2-0.1
		c0.1,0,0.2,0,0.3,0c0.1,0,0.2,0,0.3-0.1c0.1-0.1,0.3-0.3,0.6-0.5h0.1c0.2,0,0.2-0.1,0.3-0.2c0.1-0.1,0.1-0.2,0.1-0.3
		c0.1-0.1,0.2,0,0.2-0.2c0.1-0.2,0.3-0.3,0.6-0.1v0.1c-0.1,0.1-0.2,0.2-0.2,0.5l-0.1,0.1c0,0.1-0.1,0.1-0.1,0.1
		c-0.1,0-0.1,0.1-0.2,0.2c-0.1,0.1-0.1,0.2-0.2,0.2c-0.1,0-0.1,0.1-0.2,0.2c0,0.1-0.1,0.1-0.2,0.2l-0.1,0.1
		c-0.1,0.1-0.2,0.1-0.2,0.1c-0.2,0.1-0.5,0.1-0.7,0.2c-0.1,0.1-0.3,0.2-0.5,0.2c-0.1,0-0.2,0-0.3,0.1c0,0-0.1,0-0.2,0
		c-0.5,0-1,0-1.6,0c-0.1,0-0.2,0-0.2-0.1c0,0-0.1,0-0.2,0c-0.3,0-0.5-0.1-0.7-0.3l-0.1-0.1c-0.2,0-0.3-0.1-0.5-0.2
		C160.9,141.7,160.8,141.4,160.5,141.3z"/>
	<path class="st3" d="M43.4,137.1c0.1-0.1,0.2-0.2,0.2-0.5c0-0.1-0.1-0.2-0.2-0.3c-0.1-0.1-0.2,0-0.2,0.1c-0.1,0.1-0.2,0.2-0.3,0.5
		c-0.1,0.2-0.2,0.5-0.5,0.7c-0.1,0.1-0.2,0.3-0.2,0.5c-0.1,0.2-0.2,0.6-0.5,0.8c0,0,0,0,0,0.1s0,0.2,0,0.3c0,0.1-0.1,0.2-0.1,0.3
		c0,0.2-0.1,0.3-0.2,0.6c0,0-0.1,0.1,0,0.1c0,0.3-0.1,0.7-0.2,1c-0.1,0.1-0.1,0.3-0.1,0.5s0,0.1,0,0.2c-0.2,0-0.5,0-0.6,0
		c-0.2,0-0.5,0-0.8,0c-0.1,0-0.2,0-0.3,0.1c-0.1,0.1-0.2,0.1-0.3,0c-0.1-0.1-0.1-0.2-0.1-0.3c0.1-0.2,0.2-0.5,0.3-0.7
		c-0.1-0.1-0.1-0.1,0-0.3c0.1-0.1,0.2-0.3,0.2-0.6c0-0.1,0.1-0.2,0.1-0.5c0-0.1,0-0.3,0.1-0.5c0.1-0.1,0-0.2,0-0.3s0-0.1,0.1-0.2
		s0.2-0.2,0.1-0.5c0-0.2,0.1-0.5,0.2-0.7c0-0.1,0-0.1,0.1-0.2c0-0.2,0-0.5,0.1-0.6c0.1-0.1,0.1-0.2,0.1-0.3c0-0.1,0-0.1,0.1-0.2
		c0-0.1,0-0.1,0.1-0.2c-0.1,0-0.1,0-0.2-0.1l0.1-0.1c-0.1-0.1-0.2-0.2-0.3-0.2c-0.1,0-0.1,0-0.2,0c-0.1-0.1-0.2-0.1-0.1-0.2
		c0-0.1,0.1-0.2,0.2-0.2c0.3,0,0.7,0,0.9-0.1c0.2-0.1,0.5-0.1,0.6-0.1s0.2,0,0.3,0.1c0.2-0.1,0.3-0.2,0.7-0.2c0.1,0,0.2,0.1,0.3-0.1
		H43c0.1,0,0.1,0.1,0.2,0.1c-0.1,0.2-0.2,0.5-0.3,0.7c-0.1,0.2-0.2,0.5-0.2,0.7c0.1,0,0.3,0,0.3-0.1c0-0.2,0.2-0.2,0.2-0.3
		c0.1-0.1,0.2-0.2,0.2-0.3s0.2-0.1,0.3-0.2c0.1,0,0.2-0.1,0.3-0.1l0.1-0.1c0.2,0,0.3-0.1,0.6-0.1s0.3,0,0.6,0s0.3,0.1,0.5,0.2h0.1
		c0,0.2,0.2,0.6,0.1,0.8c0,0.1-0.1,0.1-0.1,0.2c0.1,0.1,0.2,0.2,0,0.5c0,0.3-0.3,0.6-0.2,0.9c-0.2,0.2,0,0.5-0.2,0.7v0.1
		c0,0.2-0.1,0.3-0.1,0.5c0,0.2-0.1,0.3-0.2,0.5c0,0-0.1,0.1,0,0.1c0.1,0.2-0.1,0.5-0.1,0.7s-0.1,0.3-0.2,0.6l0,0
		c0.1,0.1,0.1,0.2,0.2,0.1c0.1-0.1,0.2-0.1,0.2-0.3c0-0.2,0-0.5,0.2-0.6c0.1-0.1,0.2-0.1,0.3,0c0.1,0.1,0.2,0.2,0.2,0.3
		c0,0.2-0.1,0.3-0.2,0.5c-0.2,0.2-0.3,0.5-0.5,0.7c-0.2-0.1-0.5,0.1-0.6,0.3c-0.1,0.1-0.2,0.2-0.5,0.2h-0.1
		c-0.1,0.1-0.3,0.1-0.5,0.1c-0.2,0-0.5-0.1-0.6-0.1s-0.1,0-0.2-0.1c-0.1,0-0.2-0.1-0.2-0.1c0-0.2-0.2-0.5-0.1-0.7c0-0.1,0-0.1,0-0.2
		c0-0.2,0.1-0.5,0.2-0.7v-0.1c0-0.3,0.1-0.6,0.2-0.8v-0.1c0-0.2,0.1-0.5,0.2-0.6c0.1-0.1,0.1-0.2,0.1-0.3s0-0.2,0-0.3
		c0-0.1,0-0.1,0-0.2C43.5,137.4,43.4,137.3,43.4,137.1z"/>
	<path class="st3" d="M228.3,136c0-0.3,0-0.5,0.3-0.5c0.1,0,0.2,0,0.3-0.1c0,0,0.1,0,0.2,0c0.2,0,0.6,0,0.8,0c0.1,0,0.2,0,0.3-0.1
		c0,0,0.1,0,0.2,0s0.2,0,0.5-0.1c0.1-0.1,0.3,0,0.6,0c0,0.2,0,0.3-0.1,0.5c-0.1,0.2-0.1,0.5-0.2,0.7v0.2c0.1,0,0.2,0.1,0.2-0.1
		c0-0.1,0.2-0.2,0.3-0.3c0.1-0.1,0.2-0.1,0.2-0.2v-0.1c0.2,0,0.3-0.2,0.6-0.3h0.1c0.2,0,0.2-0.1,0.5-0.2c0.1,0,0.1,0.1,0.2,0
		c0.1-0.1,0.7,0,0.8,0.1c0.1,0.1,0.2,0.2,0.3,0.2l0,0c0,0.1,0,0.2,0,0.5c0,0.1,0,0.2,0.1,0.3c0.1,0.1,0,0.2,0,0.5
		c0,0.1-0.1,0.1-0.1,0.2c0,0.2-0.1,0.3-0.1,0.5c0,0.2-0.1,0.3-0.2,0.5v0.1c0,0.2-0.1,0.6-0.2,0.8s-0.1,0.6-0.2,0.8
		c-0.1,0.2-0.2,0.5-0.1,0.7c-0.1,0.1-0.1,0.3-0.1,0.5s-0.1,0.1-0.1,0.2s-0.1,0.1-0.1,0.2c0.1,0.1,0.2,0.1,0.3,0.1
		c0.1,0,0.1,0,0.2-0.1c0.1-0.2,0.1-0.3,0.1-0.6c0-0.1,0-0.2,0-0.2c0.3-0.1,0.5,0,0.7,0.2c0.1,0.1,0.1,0.1,0,0.2
		c-0.1,0.2-0.2,0.5-0.3,0.7c-0.1,0.1-0.2,0.3-0.5,0.5c-0.2,0.1-0.5,0.2-0.6,0.5c-0.1,0.1-0.1,0.1-0.2,0.1c-0.2,0-0.6,0-0.8,0
		s-0.5-0.1-0.6-0.3c-0.1-0.1-0.1-0.3-0.1-0.5s0-0.1,0-0.2c-0.1-0.1,0-0.1,0-0.1c0-0.1,0-0.2,0-0.5c0-0.1,0-0.3,0.1-0.5l0.1-0.1
		c0-0.2,0-0.5,0.1-0.7c0.1-0.2,0.1-0.5,0.2-0.6v-0.1c0-0.1,0-0.2,0.1-0.3v-0.1c0-0.2,0.1-0.5,0.2-0.7c0-0.1,0-0.2,0-0.3
		c-0.1-0.1-0.1-0.1,0-0.2s0.1-0.2-0.1-0.3c-0.1-0.1-0.2,0-0.2,0c-0.2,0.2-0.3,0.5-0.5,0.7c0,0,0,0.1-0.1,0.1
		c-0.1,0.1-0.2,0.3-0.3,0.6c-0.1,0.3-0.2,0.6-0.5,0.8c-0.1,0.1-0.1,0.2-0.2,0.2c0,0.3-0.2,0.6-0.2,0.9c0,0.1,0,0.2,0,0.3
		s-0.1,0.2-0.2,0.3c-0.1,0.2-0.1,0.3-0.1,0.6c0,0.1-0.1,0.2-0.1,0.3s0,0.2-0.1,0.3c-0.1,0.1,0,0.2,0,0.3c-0.3,0.2-0.6,0.2-0.9,0.2
		c-0.3,0-0.8,0-1.2,0c-0.1-0.2,0.1-0.3,0.1-0.6c0,0,0.1,0,0.1-0.1c0-0.2,0.1-0.5,0.1-0.7c0-0.1,0.1-0.2,0.1-0.3c0-0.1,0-0.2,0.1-0.3
		c0-0.3,0.3-0.6,0.2-0.9c0-0.1,0.1-0.3,0.2-0.5v-0.1c0-0.1,0-0.2,0.1-0.5c0.1-0.1,0.1-0.3,0.1-0.5s0.1-0.2,0.1-0.5
		c0-0.1,0-0.2,0.1-0.5c0.1-0.1,0-0.2,0.1-0.3V137c-0.1-0.1-0.2-0.3-0.5-0.2C228.5,136.1,228.4,136,228.3,136z"/>
	<path class="st3" d="M208,135.5c0.3-0.2,0.7-0.3,1-0.3c0.1,0,0.2,0,0.3,0.1c0.3,0,0.7,0,1,0c0,0.1,0,0.2,0,0.3
		c-0.2,0-0.2,0.1-0.2,0.2c-0.1,0.2-0.2,0.5-0.2,0.7c0,0.1,0,0.1-0.1,0.2v0.1c0,0.3-0.1,0.6-0.2,0.9c0,0.1-0.1,0.2-0.1,0.2
		c0,0.1,0,0.2-0.1,0.2v0.1c0,0.2-0.1,0.6-0.2,0.8c-0.1,0.1-0.1,0.3-0.1,0.6c0,0.1-0.1,0.2-0.1,0.3c0,0.1,0,0.2-0.1,0.3v0.1
		c0,0.1,0,0.2-0.1,0.3c0,0.1,0,0.2,0,0.3c0.2,0,0.5,0.1,0.6-0.1c0.1-0.1,0.2-0.3,0.2-0.5c0-0.3,0.3-0.5,0.6-0.3
		c0.1,0,0.1,0.1,0.2,0.1c0,0.1,0,0.2-0.1,0.3s-0.2,0.3-0.3,0.5c-0.1,0.2-0.2,0.3-0.5,0.3c0,0.1,0.1,0.1,0.1,0.1
		c-0.1,0.1-0.1,0.2-0.2,0.2h-0.1c-0.1,0.2-0.5,0.2-0.7,0.3c-0.2,0.1-0.5,0.1-0.6,0c-0.2-0.1-0.3-0.1-0.5-0.1h-0.1
		c-0.1-0.1-0.1-0.2-0.2-0.3c-0.2-0.3-0.3-0.8-0.1-1.2c-0.1,0-0.2,0-0.3,0c-0.1,0.5-0.2,0.8-0.6,1c-0.2,0.2-0.5,0.5-0.8,0.5
		c-0.2,0.1-0.5,0.1-0.8,0.1c-0.2,0-0.2-0.1-0.3-0.2c0-0.1-0.1-0.2-0.1-0.2c-0.1,0-0.2-0.1-0.2-0.2c-0.3-0.1-0.1-0.6-0.3-0.8
		c0-0.1,0-0.2,0-0.3c0-0.2,0-0.3,0-0.6c0-0.1,0-0.2,0.1-0.2v-0.1c-0.1-0.2,0.1-0.5,0.1-0.7c0-0.2,0.1-0.3,0.2-0.5v-0.1
		c0-0.3,0.1-0.6,0.2-0.9v-0.1c0.3-0.5,0.7-0.8,1.2-1.3c0.3-0.3,0.7-0.5,0.9-0.8l0,0c0.2,0.1,0.5-0.1,0.7-0.1c0.2,0,0.5,0,0.7,0
		C207.9,135.2,207.9,135.2,208,135.5z M207.7,135.9c-0.3,0-0.6,0-0.7,0.1c-0.1,0.1-0.1,0.2-0.1,0.3c-0.1,0.1-0.1,0.1-0.2,0.2
		c-0.1,0.1-0.1,0.3-0.3,0.3c0,0.1,0,0.2,0,0.2c0,0.1,0,0.2-0.1,0.2c-0.1,0.1-0.1,0.2-0.1,0.3c0,0.1,0,0.2-0.1,0.3
		c-0.1,0.1-0.1,0.2-0.1,0.2c0,0.3,0,0.3-0.2,0.5c-0.1,0.1-0.1,0.2-0.1,0.3s0,0.1,0,0.2c0.1,0.1,0.1,0.1,0,0.2c0,0-0.1,0.1-0.1,0.2
		c0,0.2,0,0.5,0,0.6c0,0.1,0.1,0.3,0.2,0.3c0.1,0,0.2-0.1,0.2-0.2c0,0,0-0.1,0.1-0.1c0.3-0.2,0.6-0.5,0.8-0.9
		c0.1-0.3,0.2-0.6,0.5-0.8l0.1-0.1c0-0.2,0.1-0.5,0.2-0.8c0.1-0.2,0.2-0.5,0.1-0.7c0-0.2-0.1-0.5,0.1-0.7c0,0,0,0,0-0.1
		c0-0.1-0.1-0.1-0.1-0.2C207.7,136.2,207.7,136.1,207.7,135.9z"/>
	<path class="st3" d="M51.3,135c0,0.1,0,0.1,0.1,0.2c0.2,0.1,0.3-0.1,0.5-0.1s0.1-0.1,0.2-0.1c0.5,0,0.9,0,1.4,0
		c0.1,0,0.3,0.1,0.5,0.1c-0.1,0.2-0.2,0.3-0.2,0.6c0,0.1-0.1,0.1-0.1,0.2c-0.1,0.2-0.2,0.6-0.2,0.8c0,0.2-0.1,0.3-0.2,0.5
		c-0.1,0.1,0,0.2-0.1,0.3c-0.1,0.1-0.1,0.5-0.1,0.6c-0.1,0.2-0.2,0.6-0.2,0.8c-0.1,0.2-0.2,0.3-0.2,0.6c0,0.2-0.1,0.5-0.2,0.6
		c0,0.1,0,0.2,0,0.2c0.1,0.1,0.1,0.1,0,0.2s-0.1,0.2-0.1,0.3h0.1c0.1,0,0.2,0.2,0.3,0.1c0.1-0.1,0.3-0.2,0.2-0.5
		c0-0.1,0-0.2,0.1-0.3c0.1-0.1,0.1-0.1,0.2-0.2c0.1,0,0.2,0,0.3,0.1c0.1,0,0.1,0.1,0.2,0.1c0.1,0.1,0.1,0.1,0,0.2s-0.1,0.1-0.2,0.2
		l-0.1,0.1c0,0.1-0.1,0.2-0.1,0.3c-0.1,0.1-0.2,0.2-0.3,0.2c-0.2,0.2-0.5,0.5-0.8,0.5c-0.1,0.2-0.5,0-0.7,0.2
		c-0.1,0.1-0.2,0.1-0.3,0c0,0-0.1-0.1-0.2,0c-0.2,0-0.3-0.1-0.3-0.2c-0.1-0.1-0.2-0.2-0.2-0.3v-0.1c-0.1-0.2-0.1-0.3,0-0.6
		c0,0,0-0.1,0-0.2c-0.1,0-0.1,0-0.2,0s-0.1,0.1-0.1,0.2c0,0.2-0.2,0.5-0.3,0.7c-0.1,0.1-0.2,0.1-0.3,0.2c-0.1,0-0.2,0.1-0.3,0.1
		c-0.1,0-0.2,0-0.3,0c0,0.1,0,0.1-0.1,0.2c0,0,0,0-0.1,0c-0.3,0.1-0.6,0-0.8-0.3c-0.1-0.1-0.2-0.1-0.3-0.2c0-0.1-0.1-0.2-0.2-0.5
		s-0.3-0.5-0.3-0.8c0-0.2,0-0.3,0-0.6c0-0.1,0-0.3,0.1-0.5c0-0.3,0.1-0.6,0.2-0.8c0.1-0.2,0.1-0.5,0.1-0.8c0-0.1,0.1-0.2,0.1-0.3
		c0.2-0.2,0.3-0.6,0.5-0.8c0.1-0.1,0.1-0.2,0.2-0.3c0.1-0.1,0.2-0.1,0.2-0.3l0,0c0.2,0,0.2-0.2,0.3-0.3c0-0.1,0.2-0.1,0.3-0.2
		c0.2-0.1,0.3-0.2,0.6-0.3c0.3-0.1,0.7-0.2,1.2-0.2C51,134.9,51.1,135,51.3,135z M49.2,140.7c0-0.1,0-0.2,0.2-0.2
		c0.1,0,0.1-0.1,0.2-0.2c0-0.1,0.1-0.1,0.1-0.2c0.2-0.2,0.5-0.6,0.5-0.9l0.1-0.1c0.1-0.1,0.3-0.2,0.2-0.5c0,0,0-0.1,0.1-0.1
		c0.1-0.1,0.1-0.2,0.1-0.5c0-0.2,0-0.3,0.1-0.6c0.1-0.1,0.1-0.3,0.1-0.5c0-0.2,0.1-0.5,0.2-0.7c0-0.1-0.1-0.2-0.1-0.3
		c0-0.2-0.2-0.3-0.5-0.2l-0.1,0.1c-0.2,0-0.3,0.1-0.5,0.3c-0.1,0.1-0.1,0.2-0.2,0.3c-0.2,0.1-0.1,0.3-0.2,0.5
		c-0.1,0.2-0.3,0.3-0.3,0.7c-0.2,0.3-0.2,0.6-0.2,0.9c0,0.1,0,0.1-0.1,0.2s-0.1,0.2-0.1,0.3c0,0.1,0,0.3,0,0.5
		c-0.1,0.1-0.1,0.2-0.1,0.3c0,0.1,0,0.2,0,0.3C48.7,140.7,48.9,140.7,49.2,140.7z"/>
	<path class="st3" d="M170.1,141.9c0-0.1,0.1-0.1,0.1-0.1c-0.1-0.1-0.3-0.1-0.5-0.2s-0.2-0.2-0.2-0.3c0-0.3-0.2-0.6-0.3-0.8
		c0,0,0-0.1,0-0.2c0.1-0.1,0.1-0.2,0.1-0.2c0-0.2,0-0.5,0-0.7c0-0.2,0.1-0.5,0.2-0.7l0.1-0.1c0-0.3,0.2-0.6,0.3-0.8l0,0
		c0-0.2,0.1-0.5,0.3-0.6c0.1-0.2,0.3-0.6,0.6-0.8c0.3-0.2,0.6-0.5,0.9-0.7c0.1-0.1,0.2-0.1,0.5-0.1h0.1c0.1-0.2,0.3-0.2,0.6-0.3
		c0.1,0,0.1,0,0.2-0.1c0.1,0,0.2,0,0.3-0.1c0,0,0.1,0,0.2,0c0.2,0,0.6,0,0.8,0c0.3,0.1,0.7,0.1,0.9,0.5c0.1,0.1,0.2,0.2,0.3,0.3
		c0.2,0.2,0.3,0.6,0.6,0.8c0,0,0,0.1,0,0.2c0,0.2,0,0.3,0.1,0.6c0.1,0.1,0.1,0.3,0,0.6c-0.1,0.2-0.2,0.5-0.2,0.6
		c0,0.3,0,0.6-0.1,0.8l-0.1,0.1c0,0.2-0.1,0.3-0.2,0.5s-0.2,0.2-0.2,0.3c0,0.2-0.2,0.3-0.3,0.5c-0.1,0.2-0.3,0.3-0.6,0.6l-0.1,0.1
		c0,0.2-0.2,0.2-0.3,0.3c-0.2,0.1-0.3,0.2-0.5,0.3c-0.1,0.1-0.1,0.1-0.2,0.1c-0.3,0.1-0.6,0.1-0.9,0.3c-0.1,0-0.1,0-0.1,0h-0.1
		c-0.1,0.1-0.3,0.1-0.5,0.2h-0.1c-0.1,0-0.1-0.1-0.2-0.1c-0.3,0.1-0.7-0.1-1-0.3C170.3,142,170.2,142,170.1,141.9z M173.7,139.8
		v-0.1c-0.2-0.2-0.1-0.5,0-0.7c0.1-0.1,0.1-0.2,0.1-0.3c0-0.2,0-0.3,0.1-0.5c0.1-0.2,0.1-0.3,0.1-0.6c0-0.3,0.1-0.6,0.1-0.8
		c0.1-0.3,0.1-0.6,0-0.9c-0.1-0.2-0.3-0.3-0.6-0.2c-0.2,0.1-0.3,0.1-0.6,0.1c-0.1,0-0.2,0.1-0.2,0.2c0,0.3-0.2,0.5-0.3,0.7
		c0,0.1-0.1,0.2-0.1,0.3c-0.1,0.1,0,0.3-0.2,0.6c-0.1,0.1-0.1,0.2-0.1,0.3c-0.1,0.1-0.1,0.3-0.1,0.5c-0.1,0.1,0,0.2,0,0.3
		c-0.1,0.1-0.2,0.2-0.2,0.3c0,0.2-0.1,0.3-0.2,0.5c0,0.1-0.1,0.2,0,0.3c0,0.1,0.1,0.2,0,0.2c-0.1,0.1-0.1,0.2-0.1,0.5
		c0,0.3,0,0.6,0.1,0.9c0.1,0.3,0.3,0.5,0.6,0.3c0.1-0.1,0.2,0,0.3-0.1s0.2-0.2,0.3-0.3c0.1-0.1,0.2-0.1,0.1-0.2
		c0-0.1,0.1-0.2,0.1-0.3l0.1-0.1C173.1,140.2,173.3,140,173.7,139.8z"/>
	<path class="st3" d="M117.8,136.8c-0.5,0-0.9,0-1.4-0.2c-0.1,0-0.1,0-0.2,0.1c-0.1,0-0.2,0.1-0.2,0.2c0,0.2-0.2,0.2-0.3,0.3
		c0,0.2-0.1,0.5-0.2,0.8c-0.1,0.2-0.1,0.5,0.1,0.7c0.1,0.1,0.1,0.3,0,0.6c0.1,0.2,0.2,0.5,0.2,0.7c0,0.3,0.2,0.6,0.2,0.8
		c0.1,0.2,0.2,0.2,0.3,0.3c0.3-0.2,0.7-0.3,0.7-0.8c0.1,0,0.2,0,0.3,0c0,0.1,0.1,0.1,0.1,0.2v0.1c-0.1,0.1,0,0.5-0.2,0.6l-0.1,0.1
		c-0.1,0.3-0.3,0.5-0.7,0.7c0,0,0,0-0.1,0c-0.2,0.2-0.2,0.3-0.6,0.3c-0.1,0-0.2,0-0.3,0.1h-0.2c-0.2-0.1-0.3-0.1-0.6-0.1
		c-0.1,0-0.2,0-0.3-0.1c-0.1-0.1-0.3-0.3-0.3-0.6c0-0.1-0.1-0.2-0.1-0.3c-0.1-0.2-0.2-0.3-0.2-0.6s-0.1-0.2-0.3-0.2
		c-0.1,0.2-0.1,0.6-0.3,0.8c-0.1,0.2-0.3,0.5-0.6,0.5c0,0.1,0,0.2,0,0.3c-0.1,0-0.1,0-0.2,0.1c-0.1,0.1-0.2,0.2-0.5,0.2h-0.1
		c-0.1,0.2-0.3,0.2-0.5,0.2c-0.1,0-0.1,0-0.2,0c-0.2,0-0.5,0-0.6-0.1c-0.2-0.2-0.3-0.5-0.3-0.8c0-0.1,0-0.1,0-0.2
		c0-0.2,0.1-0.5,0.3-0.6c0.3-0.2,0.7-0.1,0.9-0.1c0.1,0,0.2,0.1,0.3,0.1c0.2,0,0.6,0,0.7-0.2c0,0,0.1,0,0.2-0.1
		c0-0.1-0.1-0.1-0.1-0.2c0-0.1,0.1-0.1,0.1-0.2c0.1-0.2,0.2-0.3,0.5-0.6c0.1-0.1,0-0.3,0-0.5c-0.1-0.2-0.2-0.5-0.2-0.7
		c0-0.1,0-0.2-0.1-0.3c0,0,0-0.1,0-0.2s0-0.2-0.1-0.2l0,0c0.1-0.3-0.1-0.6-0.1-0.9c0-0.2-0.2-0.5-0.5-0.5c-0.1,0-0.2,0-0.2-0.1
		c0,0-0.1,0-0.2,0c-0.1,0-0.2,0-0.3,0c0-0.3,0-0.5,0.3-0.5c0.1,0,0.2,0,0.2-0.1h0.1c0.1,0,0.2,0,0.3-0.1c0.1-0.1,0.2,0,0.5,0
		c0.1,0,0.2,0,0.3-0.1c0.1-0.1,0.2-0.1,0.3-0.1c0.1,0,0.3,0.1,0.5-0.1c0.1,0.1,0.1,0.1,0.2,0.3c0,0.1,0.1,0.3,0.2,0.5
		c0.1,0.1,0.1,0.2,0.1,0.3c0,0.1,0,0.3,0.1,0.5c0.1,0.1,0,0.2,0,0.3c0,0.1,0,0.3,0.2,0.3c0.1-0.1,0.3-0.2,0.3-0.5
		c0.1-0.2,0.1-0.5,0.3-0.6c0-0.3,0.3-0.5,0.5-0.7c0-0.1,0.2-0.1,0.3-0.2c0.3-0.2,0.7-0.1,1.2-0.1l0,0c0.1,0.1,0.2,0.2,0.3,0.2
		c0.3,0.2,0.3,0.5,0.1,0.8l0,0c0,0.2-0.1,0.5-0.3,0.5C117.8,136.6,117.8,136.7,117.8,136.8z"/>
	<path class="st3" d="M196.7,138.4c0.1,0.2,0.1,0.3,0,0.5c-0.1,0.1-0.1,0.1-0.1,0.2c-0.1,0.2-0.1,0.5-0.2,0.7l-0.1,0.1
		c0,0.2-0.1,0.2-0.2,0.3c-0.2,0.2-0.3,0.3-0.6,0.6c-0.1,0.1-0.2,0.3-0.3,0.5s-0.2,0.2-0.3,0.2c-0.1,0-0.2,0.1-0.2,0.1
		c-0.1,0.1-0.2,0.2-0.5,0.2c-0.1,0-0.2,0.1-0.3,0.2s-0.2,0.2-0.5,0.2c-0.2,0-0.5,0-0.6,0.1c-0.1,0.1-0.2,0.1-0.3,0
		c0,0-0.1-0.1-0.1,0c-0.3,0.1-0.6-0.2-0.9-0.3c-0.2-0.1-0.3-0.1-0.5-0.5c0,0,0,0-0.1-0.1c-0.2-0.1-0.2-0.3-0.2-0.6
		c0-0.1,0-0.1-0.1-0.2c0-0.1,0-0.1,0-0.2s0-0.3-0.1-0.5c0-0.1-0.1-0.2,0.1-0.3l0.1-0.1c-0.1-0.2-0.1-0.3,0.1-0.6l-0.1-0.1
		c0-0.1,0.1-0.1,0.1-0.2c0-0.2,0-0.2,0.2-0.5c0-0.1-0.2-0.2-0.1-0.3c0.1-0.1,0.2-0.1,0.3-0.2v-0.1c-0.1-0.2,0-0.3,0.1-0.5
		s0.2-0.2,0.2-0.5c0,0,0.1,0,0.1-0.1h0.1c0-0.2,0.2-0.3,0.5-0.5c0.1-0.1,0.3-0.2,0.6-0.3c0.1,0,0.1-0.1,0.2-0.2
		c0.2-0.1,0.3-0.2,0.6-0.2c0.2,0,0.6-0.1,0.8-0.2c0.1,0,0.2-0.1,0.3-0.1h0.1c0.5-0.1,0.8,0.1,1.2,0.3c0,0,0.1,0,0.1,0.1
		c0.3,0.1,0.6,0.3,0.7,0.7c0,0.1,0.1,0.1,0.1,0.2c0.1,0.2,0.2,0.3,0.1,0.6v0.1c0.2,0.3,0.1,0.7,0.1,1
		C197,138.1,196.8,138.3,196.7,138.4z M195.1,136.1c-0.1-0.1-0.3-0.2-0.5-0.3c0,0-0.1,0-0.2,0c-0.2,0.1-0.5,0.2-0.7,0.3
		c-0.2,0.1-0.3,0.5-0.5,0.7c-0.1,0.2-0.2,0.6-0.3,0.8c0,0.1-0.1,0.2-0.1,0.3c0,0.1-0.1,0.1-0.1,0.2s0,0.1-0.1,0.2
		c0,0.1-0.2,0.2-0.1,0.3c0.1,0.2-0.1,0.3,0,0.6v0.1c-0.1,0.1-0.1,0.2-0.1,0.3c0,0.2-0.1,0.5-0.2,0.7c0,0.1,0,0.2,0,0.2
		c0.1,0.1,0.1,0.2,0.1,0.3c0,0.2,0,0.6,0.2,0.8c0.2,0,0.6,0,0.8,0c-0.1-0.2,0.1-0.3,0.2-0.6c0,0,0.1-0.1,0.1-0.2
		c0.1-0.1,0.2-0.3,0.3-0.5l0.1-0.1c0-0.2,0.1-0.3,0.2-0.5l0.1-0.1c0-0.1,0-0.3,0.1-0.5c0.1-0.1,0.1-0.3,0.1-0.5s0-0.2,0-0.2
		c0-0.1,0-0.2,0.1-0.3c0.1-0.1,0.1-0.2,0.1-0.2c0-0.1-0.1-0.1,0-0.2c0-0.2,0.2-0.5,0.1-0.8c0-0.2,0-0.3,0-0.6
		C195,136.3,195.1,136.2,195.1,136.1z M194.9,135.4C194.9,135.4,194.9,135.3,194.9,135.4c-0.1-0.1-0.2-0.1-0.3,0
		C194.6,135.4,194.8,135.4,194.9,135.4z M192.4,142L192.4,142c0.1,0.1,0.2,0.1,0.3,0C192.7,142,192.5,142,192.4,142z"/>
	<path class="st3" d="M226.5,135.9c0,0.1,0,0.2,0,0.3v0.1c0.2,0.2,0.3,0.6,0.3,0.9c0,0.2,0,0.6,0,0.8s0,0.3-0.1,0.6
		c-0.1,0.1-0.1,0.3-0.1,0.6c-0.1,0.2-0.1,0.5-0.3,0.7c-0.1,0.1-0.2,0.2-0.2,0.3c0,0.2-0.1,0.3-0.3,0.3c0,0.3-0.2,0.6-0.6,0.7
		c-0.1,0.1-0.2,0.2-0.3,0.3c-0.1,0.2-0.3,0.2-0.6,0.3c-0.1,0-0.1,0.1-0.2,0.1c-0.1,0.1-0.2,0.1-0.2,0.1c-0.2,0.1-0.5,0.1-0.7,0.1
		c-0.2,0-0.3,0.1-0.5,0.2h-0.1c-0.2-0.2-0.5-0.1-0.7-0.1c-0.1,0-0.2,0-0.2-0.1c-0.2-0.1-0.5-0.2-0.7-0.3c0,0-0.1,0-0.2,0
		c0-0.1,0-0.1,0.1-0.2s0.1-0.2-0.1-0.2c-0.1,0-0.1,0-0.1-0.1c0-0.2-0.2-0.2-0.2-0.5c0-0.1-0.1-0.2-0.1-0.5c0-0.1,0.1-0.3-0.1-0.5
		c0,0,0-0.1,0-0.2s0.1-0.1,0.1-0.2c0,0,0,0,0,0.1c0-0.1-0.1-0.2-0.1-0.3c0-0.1,0.1-0.2,0.1-0.2c0.1-0.1,0.1-0.2,0.1-0.2
		c0-0.1,0-0.2,0.1-0.2c0.1-0.1,0-0.2,0-0.3c0-0.1,0-0.2,0.1-0.3c0.2-0.5,0.5-0.8,0.8-1.2c0.1-0.1,0.1-0.2,0.1-0.2
		c0.1-0.2,0.3-0.2,0.5-0.3c0.1,0,0.2-0.1,0.2-0.2c0.2-0.3,0.6-0.5,1-0.6c0.2-0.2,0.5,0,0.7-0.2c0,0,0.1,0,0.2,0c0.2,0,0.5,0,0.7,0
		c0.2,0,0.5,0.1,0.7,0.2c0.2,0.1,0.5,0.2,0.6,0.5C226.3,135.7,226.4,135.7,226.5,135.9z M224.9,136.7
		C225,136.7,225,136.6,224.9,136.7c0.2-0.3,0.2-0.3,0.1-0.5c-0.1-0.1-0.2-0.2-0.3-0.3c-0.1-0.1-0.2-0.1-0.3-0.1l-0.1,0.1
		c-0.3,0.1-0.5,0.2-0.7,0.5c-0.2,0.2-0.2,0.5-0.5,0.7c-0.1,0.1-0.1,0.2-0.1,0.5s-0.2,0.5-0.1,0.7c0,0,0,0,0,0.1
		c-0.1,0.2-0.2,0.3-0.2,0.6c0,0.1-0.1,0.2-0.1,0.2c0,0.1-0.1,0.1-0.1,0.2c0,0.2,0,0.5-0.1,0.7c-0.1,0.1-0.1,0.3-0.2,0.6
		c0,0.1,0,0.1,0,0.2c0.1,0.2,0.2,0.5,0.2,0.8c0,0.1,0,0.1,0,0.2c0.3,0,0.7,0,1,0c0.1-0.1,0.1-0.2,0.2-0.2c0.2-0.1,0.3-0.5,0.3-0.7
		c0-0.2,0.1-0.5,0.2-0.6c0.1,0,0.2,0,0.3,0c0-0.1,0-0.2,0-0.3c0-0.2,0.1-0.5,0.2-0.7c0,0,0-0.1,0.1-0.1c0.1-0.2,0.1-0.5,0.1-0.7
		c0-0.1,0.1-0.3,0.1-0.5c0.2-0.2,0.2-0.6,0.2-0.8C225,136.8,225,136.8,224.9,136.7z"/>
	<path class="st3" d="M91.4,140c-0.1,0.1-0.2,0.2-0.2,0.3s-0.1,0.3-0.1,0.5c0,0.2,0.1,0.2,0.3,0.2c0-0.2,0.1-0.5,0.1-0.6
		c0-0.2,0.3-0.3,0.6-0.1c0.1,0,0.1,0.1,0.2,0.1c0,0.1-0.1,0.2-0.2,0.3c-0.2,0.2-0.5,0.6-0.7,0.8c-0.1,0.1-0.2,0.2-0.3,0.2
		c-0.1,0-0.1,0.1-0.2,0.1c-0.2,0.1-0.5,0.2-0.8,0.2l-0.1,0.1c-0.1,0-0.1,0-0.2,0c-0.1-0.1-0.3-0.1-0.5-0.2c-0.2-0.1-0.2-0.3-0.3-0.5
		c0-0.1,0-0.2-0.1-0.3c0-0.1-0.1-0.2,0-0.3c0.1-0.2,0.1-0.5,0.1-0.7c0-0.3,0.1-0.7,0.3-0.9c0.1-0.1,0.1-0.1,0-0.2
		c-0.1-0.1-0.1-0.1,0-0.2c0.1-0.2,0.2-0.3,0.2-0.7c0-0.1,0-0.2,0.1-0.2c0.1-0.1,0.2-0.2,0.1-0.3c0-0.2,0-0.5,0.2-0.7v-0.1
		c0-0.2,0.1-0.5,0.2-0.6c0.1-0.1,0.1-0.3,0.1-0.5c0-0.2,0-0.5,0.1-0.7c0.1-0.1,0-0.3,0.1-0.5c0.1-0.1,0.1-0.3,0.1-0.5
		s0.1-0.2,0.1-0.3s0.1-0.2,0.1-0.3c0-0.2,0.1-0.3,0.2-0.5v-0.1c-0.1-0.1-0.1-0.2-0.1-0.5c0-0.1-0.1-0.2-0.3-0.2s-0.3-0.1-0.2-0.3
		c0-0.1,0.2-0.3,0.3-0.3c0.1,0,0.3,0,0.5,0c0.1,0,0.2,0,0.3-0.1c0,0,0.1,0,0.2,0c0.2,0,0.3,0,0.6,0c0.1,0,0.2,0,0.3-0.1
		c0,0,0.1,0,0.2,0c0.1,0,0.2,0,0.2-0.1c0.1-0.1,0.2-0.1,0.3,0c0.2,0,0.2,0.2,0.1,0.3c-0.1,0.1-0.1,0.2-0.1,0.3s0,0.2-0.1,0.3v0.1
		c0,0.2,0,0.3-0.2,0.5c0,0-0.1,0.1-0.1,0.2c0,0.2-0.1,0.5-0.2,0.8v0.1c0,0.2,0,0.3-0.2,0.5l0,0c0,0.2-0.2,0.5-0.1,0.7
		c0,0.1,0,0.3-0.1,0.5l-0.1,0.1c0,0.2,0,0.5-0.1,0.7c-0.1,0.2-0.1,0.3-0.2,0.6v0.1c0,0.3-0.2,0.6-0.3,0.8c0,0.1-0.1,0.2,0,0.3
		c0.1,0.1,0,0.3,0,0.3c-0.1,0.1-0.1,0.2-0.1,0.3s-0.1,0.2-0.2,0.5c0,0.1-0.1,0.2-0.1,0.3C91.3,139.9,91.4,139.9,91.4,140z"/>
	<path class="st3" d="M80.7,140.2c0.1,0.5,0,0.8-0.3,0.9c-0.2,0.1-0.5,0.3-0.7,0.6h-0.1c-0.3,0-0.6,0.2-0.8,0.3l-0.1,0.1
		c-0.5,0-0.9,0.2-1.5,0.1c-0.1,0-0.2-0.1-0.3-0.1s-0.2,0-0.3-0.1c0,0,0,0-0.1,0c-0.2,0-0.3-0.1-0.3-0.3c-0.1,0-0.2,0-0.3,0
		c0-0.1,0-0.1-0.1-0.2c-0.1-0.1-0.1-0.2-0.2-0.3c-0.1-0.3-0.1-0.7-0.3-1c0-0.1,0-0.2,0-0.3c0.1-0.1,0.1-0.2,0.1-0.2
		c0-0.1,0-0.3,0.1-0.5v-0.2c0-0.2,0.1-0.5,0.1-0.7c0.1-0.1,0.1-0.1,0-0.3c0.2-0.2,0.3-0.3,0.5-0.7l0,0c0.2,0,0.2-0.2,0.3-0.3
		c0.1-0.1,0.2-0.2,0.5-0.3c0.2-0.2,0.5-0.3,0.7-0.6l0,0c0.2,0,0.5-0.1,0.7-0.2s0.5-0.1,0.6-0.2c0.2-0.1,0.3-0.1,0.6-0.1s0.6,0,0.8,0
		s0.5,0.1,0.6,0.1c0.1,0,0.2,0.1,0.3,0.2c0,0.1,0.1,0.1,0.2,0.2c0.1,0.1,0.2,0.3,0.2,0.6c0,0.3,0,0.6-0.2,0.8v0.1
		c0,0.1-0.1,0.2-0.1,0.2c-0.1,0.2-0.2,0.5-0.5,0.6c-0.3,0.2-0.6,0.5-0.8,0.7c-0.1,0.1-0.2,0.1-0.5,0.2c-0.1,0-0.1,0.1-0.2,0.1
		c-0.3,0.1-0.7,0.3-1,0.2c-0.1,0-0.2,0.1-0.3,0.1s-0.2-0.1-0.3-0.1c-0.1,0-0.2,0-0.3,0c0,0.3,0,0.7,0,1c0,0.2,0.1,0.5,0.3,0.6
		c0.1,0.1,0.5,0.2,0.7,0.3s0.6,0.1,0.8,0s0.5-0.1,0.7-0.3c0.1-0.1,0.1-0.2,0.3-0.2c0,0,0.1,0,0.1-0.1c0-0.2,0.2-0.3,0.5-0.2
		C80.6,140.2,80.6,140.2,80.7,140.2z M78.4,136c0,0.1,0,0.2-0.1,0.3c-0.1,0.2-0.2,0.2-0.2,0.5c-0.1,0.3-0.5,0.6-0.3,0.9l-0.1,0.1
		c-0.2,0.1-0.1,0.3-0.2,0.6v0.1c0.1,0.1,0.2,0.1,0.5,0.1c0.1-0.1,0.2-0.1,0.3-0.1c0.2,0,0.2-0.1,0.3-0.2s0.1-0.1,0.2-0.2
		c0.1,0,0.2-0.1,0.2-0.2c0-0.2,0.1-0.3,0.1-0.6c0.1-0.2,0.2-0.6,0.3-0.8c0.1-0.2,0.1-0.5,0-0.6c-0.1-0.1-0.1-0.2-0.2-0.2
		c-0.1,0-0.2,0-0.3,0.1C78.8,135.7,78.6,135.9,78.4,136z"/>
	<path class="st3" d="M87,140.5c0-0.1,0-0.2,0-0.3c0.1,0,0.2,0,0.5,0v0.1c0.2,0.1,0.1,0.3,0,0.5c-0.1,0.1-0.2,0.3-0.3,0.5
		c-0.2,0.1-0.3,0.2-0.5,0.3c-0.2,0.2-0.6,0.3-0.9,0.3c0,0.1,0,0.1-0.1,0.2c-0.2,0-0.3,0-0.6,0.1c-0.1,0.1-0.3,0-0.5,0
		c-0.2,0-0.3,0-0.6-0.1c-0.1-0.1-0.3,0-0.5,0c-0.3,0-0.6-0.1-0.8-0.2c-0.1,0-0.1-0.2-0.1-0.3c0-0.1-0.1-0.2-0.1-0.2
		c0-0.1-0.1-0.1-0.1-0.2c0-0.2-0.1-0.3-0.1-0.6c-0.1-0.1-0.1-0.2-0.1-0.3c0-0.5,0-0.8,0-1.3c0.1,0,0.1,0,0.2-0.1v-0.1l-0.1-0.1
		c0.2-0.1,0-0.5,0.2-0.6c0,0,0-0.1,0-0.2c0-0.1,0-0.2,0.1-0.3l0.1-0.1c0-0.2,0.1-0.3,0.2-0.5c0.2-0.2,0.3-0.3,0.6-0.6
		c0.1-0.1,0.1-0.2,0.2-0.2c0.1-0.1,0.2-0.1,0.3-0.2c0.1,0,0.1-0.1,0.2-0.2c0-0.1,0.1-0.2,0.2-0.2c0.1,0,0.2-0.1,0.3-0.1L85,135
		c0.1,0,0.2-0.1,0.5-0.1c0.3-0.2,0.8-0.2,1.2-0.2c0.2,0,0.5,0,0.7,0c0.2,0,0.5,0.2,0.7,0.1c0.2,0.2,0.5,0.3,0.6,0.7v0.1
		c0.1,0.2,0.1,0.3,0,0.6c0,0-0.1,0.1-0.1,0.2c0,0.2-0.1,0.5-0.3,0.7c-0.1,0.1-0.2,0.1-0.1,0.3c0,0.2-0.2,0.3-0.3,0.3
		c-0.3,0.1-0.6,0.3-0.8,0.6l-0.1,0.1c-0.2,0-0.3,0.1-0.6,0.2h-0.1c-0.1,0-0.2,0-0.3,0.1c0,0-0.1,0-0.2,0c-0.3,0-0.6,0-0.9,0
		c-0.3,0-0.5,0.1-0.3,0.5c0,0.1,0,0.2,0.1,0.3l0,0c-0.2,0.3,0.1,0.5,0.1,0.7c0,0.1,0.1,0.2,0.1,0.3c0.2,0,0.2,0.2,0.3,0.2H85
		c0.2,0,0.6,0,0.8,0c0.1,0,0.1,0,0.2-0.1c0.3-0.1,0.6-0.3,0.9-0.5C86.9,140.5,86.9,140.5,87,140.5z M86.4,136.6
		c0-0.1-0.1-0.2-0.1-0.3s0-0.1,0-0.2c0.1-0.2,0-0.3-0.1-0.3c-0.2,0-0.5,0-0.7,0.1c-0.3,0.3-0.5,0.7-0.8,0.9c0,0-0.1,0.1,0,0.1
		c0,0.2-0.1,0.3-0.2,0.6v0.1c0,0.3-0.3,0.6-0.3,1c0.1,0,0.3,0.1,0.6-0.1c0.1-0.1,0.3-0.2,0.6-0.1c0.1,0,0.2-0.1,0.2-0.2
		c0,0,0-0.1,0.1-0.1c0.2-0.1,0.3-0.2,0.5-0.5c0.1-0.2,0.2-0.5,0.3-0.6c0-0.1-0.1-0.2-0.1-0.3C86.3,136.7,86.3,136.7,86.4,136.6z"/>
	<path class="st3" d="M136.9,138.2c0.1,0.3-0.2,0.2-0.3,0.3c-0.1,0.1-0.2,0.1-0.2,0.2c-0.1,0.1-0.3,0-0.5,0.1
		c-0.1,0.1-0.2,0.2-0.5,0.1c-0.6,0.2-1,0.1-1.6,0.1c0,0.3,0,0.6,0,0.9c0,0.2,0.1,0.5,0.2,0.7c0.1,0.2,0.3,0.2,0.5,0.3
		c0.3,0.2,0.8,0.1,1.2,0.1c0.2-0.1,0.5-0.1,0.7-0.3c0.1-0.2,0.3-0.3,0.6-0.6c0.1-0.1,0.2-0.1,0.3-0.1s0.2,0.1,0.2,0.2
		c0,0.2,0,0.3-0.2,0.5c-0.1,0.1-0.2,0.2-0.3,0.3c-0.1,0.2-0.2,0.3-0.5,0.5c-0.1,0-0.2,0.1-0.2,0.2c-0.1,0.1-0.2,0.2-0.3,0.1
		c-0.1,0-0.2,0-0.2,0.1c-0.1,0.1-0.2,0.1-0.3,0.1s-0.3-0.1-0.5,0.1c-0.2,0-0.6,0.1-0.8-0.1c-0.1,0-0.2,0-0.3,0c-0.1,0-0.2,0-0.3-0.1
		c-0.1-0.1-0.1-0.2-0.3-0.2l-0.1-0.1c-0.1-0.1-0.3-0.1-0.5-0.2c0.1-0.1,0.1-0.1,0.1-0.1c-0.1-0.2-0.3-0.6-0.5-0.8v-0.1
		c0.1-0.1,0.1-0.2,0-0.3c-0.1-0.1-0.1-0.3,0-0.5c-0.1-0.2-0.1-0.3,0-0.6c0.1-0.1,0.2-0.2,0.1-0.5v-0.1c0.1-0.2,0.1-0.2-0.1-0.3
		c0.1,0,0.2,0,0.3,0c0-0.1,0-0.2,0-0.3c0.1,0,0.1,0,0.2,0v-0.1c0,0-0.1,0,0-0.1c0.2-0.6,0.7-0.9,1-1.4c0.1-0.1,0.2-0.2,0.3-0.3
		c0.1-0.1,0.2-0.1,0.3-0.2c0.3-0.1,0.6-0.1,0.9-0.5c0.1-0.1,0.3-0.2,0.5-0.2c0.3,0,0.7,0,1.2,0c0.3,0,0.7,0.1,1,0.2
		c0.2,0.1,0.5,0.3,0.5,0.7l0,0c0,0.3,0,0.3-0.1,0.8c-0.1,0.2-0.2,0.5-0.2,0.7c0,0.1-0.1,0.2-0.2,0.2c-0.1,0.1-0.1,0.1-0.2,0.3
		C137.3,138.2,137.2,138.3,136.9,138.2z M136,135.6c-0.1,0-0.2,0.1-0.3,0.1c-0.1,0-0.2,0-0.2,0c-0.1,0.2-0.5,0.2-0.6,0.6
		c-0.1,0.2-0.2,0.5-0.3,0.6c-0.1,0.1-0.1,0.3-0.2,0.5c0,0.1-0.1,0.1-0.1,0.2c-0.1,0.3-0.2,0.7-0.3,1c0.2,0,0.6,0.1,0.7-0.1h0.1
		c0.2,0,0.5-0.2,0.7-0.3c0.1-0.1,0.3-0.2,0.3-0.5c0.2-0.1,0.1-0.2,0.1-0.5c0.1-0.2,0.2-0.3,0.2-0.6c0,0,0-0.1,0.1-0.1
		c0-0.2,0-0.3,0-0.6C136.1,135.9,136,135.7,136,135.6z"/>
	<path class="st3" d="M75.4,133c0,0.1-0.1,0.2-0.1,0.2c-0.1,0.1-0.1,0.1-0.1,0.2c0,0.2,0,0.3-0.1,0.5c-0.1,0.1-0.1,0.3-0.1,0.5
		c0,0.1-0.1,0.2-0.1,0.3c0.2,0,0.3,0,0.6,0c0.1,0,0.2,0.1,0.2,0.1v0.1c-0.1,0.1,0,0.5-0.2,0.6h-0.1c-0.1,0.3-0.3,0.3-0.7,0.3
		c-0.1,0-0.3,0.2-0.3,0.3c0,0.2-0.1,0.5-0.2,0.6c-0.1,0.1,0,0.2-0.1,0.5c-0.1,0.1-0.1,0.5-0.1,0.6c0,0.3-0.2,0.6-0.3,0.9l-0.1,0.1
		c0,0.3-0.2,0.6-0.2,0.8s-0.1,0.6-0.2,0.8c-0.1,0.1,0,0.2,0.2,0.3c0.5-0.3,0.5-0.3,0.5-0.8c0.1,0,0.1-0.1,0.2-0.1l0,0
		c0.1,0.1,0.3,0,0.6,0.1c0.2,0.1,0.2,0.3,0,0.5S74,140.7,74,141c0,0.1,0,0.1-0.1,0.2c-0.1,0.1-0.2,0.1-0.2,0.2
		c-0.1,0.1-0.2,0.2-0.5,0.2h-0.1c-0.1,0.1-0.2,0.1-0.5,0.1c-0.1,0-0.2,0-0.2,0.1c-0.2,0.2-0.6,0.2-0.8,0.1c-0.1-0.1-0.3-0.1-0.6-0.2
		c-0.1-0.2-0.2-0.3-0.2-0.6c0-0.1,0-0.2,0-0.2c0-0.3,0-0.6,0.2-0.9c0-0.1,0-0.1,0-0.1c0-0.1,0-0.2,0.1-0.2c0.1-0.2,0.2-0.5,0.2-0.7
		c0-0.1,0.1-0.3,0.2-0.5c0-0.3,0.3-0.6,0.3-0.9c0-0.1,0.1-0.2,0.1-0.3c0.1-0.2,0.1-0.3,0.1-0.6c0,0,0-0.1,0.1-0.1
		c0.1-0.1,0.2-0.2,0.1-0.5c-0.5,0-0.9,0-1.4,0c0-0.1,0-0.1,0-0.2c0-0.1,0.1-0.1,0.1-0.2c0-0.2,0.1-0.3,0.1-0.5
		c0.1-0.1,0.2-0.3,0.5-0.2c0.1,0,0.2,0,0.3,0s0.2,0,0.3-0.1c0,0,0,0,0.1,0c0.3,0.1,0.5-0.1,0.6-0.3c0.1-0.1,0.2-0.2,0.3-0.2
		c0,0,0.1,0,0.1-0.1c0.3-0.3,0.6-0.6,0.9-0.9c0,0,0.1,0,0.1-0.1c0-0.2,0.2-0.2,0.5-0.3c0.1,0,0.1,0,0.2-0.1
		C75.2,132.8,75.3,133,75.4,133z"/>
	<path class="st3" d="M214.9,135.2c0.3,0,0.6,0,0.9,0c0,0.1,0.1,0.2-0.1,0.3v0.1c0,0.1,0,0.2-0.1,0.2l-0.1,0.1
		c0,0.2-0.2,0.3-0.5,0.3c-0.1,0-0.3,0-0.5,0c-0.1,0.2-0.1,0.5-0.2,0.7c0.1,0.2,0.1,0.2,0,0.3c-0.1,0.1-0.1,0.1-0.1,0.2
		s-0.1,0.2-0.1,0.3s-0.1,0.2-0.1,0.3c0,0.1,0,0.2-0.1,0.3c-0.1,0.2-0.1,0.3-0.2,0.5v0.1c0,0.2-0.1,0.5-0.2,0.6
		c-0.1,0.2-0.1,0.3-0.1,0.6c0,0.2,0,0.5,0,0.8c0.1,0,0.2,0,0.3,0c0-0.2,0.1-0.3,0.2-0.6c0-0.1,0.2-0.2,0.2-0.3l0,0
		c0.1,0.1,0.5,0,0.6,0.3c-0.1,0.2-0.3,0.5-0.5,0.7c0,0-0.1,0-0.1,0.1H214c0,0.3-0.3,0.3-0.6,0.5c0,0,0,0-0.1,0
		c-0.1,0.2-0.3,0.2-0.5,0.2s-0.1,0-0.2,0.1c-0.1,0-0.1,0-0.2,0c-0.2,0-0.6,0-0.8,0c0-0.2-0.2-0.3-0.3-0.5c-0.1-0.1-0.2-0.2-0.2-0.3
		s0-0.2-0.1-0.3c-0.1-0.1-0.1-0.3,0.1-0.5c0.1-0.1,0.1-0.2,0.1-0.3c0-0.1,0-0.2,0.1-0.2c0.1-0.1,0.2-0.3,0.1-0.5
		c0-0.2,0.1-0.5,0.2-0.8v-0.1v-0.1c0.2-0.2,0.2-0.5,0.3-0.7c0.1-0.2,0.2-0.5,0.1-0.7c0-0.1,0-0.2,0.1-0.3c0.1-0.1,0.1-0.2,0.1-0.3
		s-0.1-0.2-0.2-0.2c-0.1,0-0.2,0-0.3,0.1c-0.1,0.1-0.3,0-0.5,0c-0.1,0-0.1-0.1-0.2-0.1l0.1-0.1c0-0.2,0.1-0.5,0.1-0.7
		c0-0.1,0.1-0.2,0.2-0.2c0.1,0,0.2,0,0.3,0c0.5,0.1,0.7-0.1,1-0.3c0.2-0.1,0.3-0.2,0.6-0.5c0.2-0.2,0.7-0.5,0.9-0.8
		c0.1-0.1,0.1-0.2,0.1-0.2c0-0.1,0.1-0.1,0.1-0.2c0.2-0.1,0.5-0.1,0.7-0.1c0,0.2,0.1,0.3-0.1,0.6c-0.1,0.1,0,0.2,0,0.3
		c0,0.2,0,0.3-0.1,0.5l-0.1,0.1c0,0.1,0,0.3-0.1,0.5C214.9,135,214.9,135,214.9,135.2z"/>
	<path class="st3" d="M199.6,142.4c-0.7,0-1.4,0-2.2,0c0-0.1-0.1-0.2,0.1-0.3c0-0.3,0.3-0.7,0.2-1c0.1-0.2,0.1-0.7,0.3-0.9
		c0.1-0.1,0-0.3,0.2-0.5c-0.1-0.2,0.1-0.5,0.1-0.6c0-0.2,0.1-0.3,0.2-0.6c0.1-0.2,0.1-0.5,0.1-0.6v-0.1c0-0.1,0.1-0.2,0.1-0.2
		c0-0.3,0-0.8,0-1.2c-0.3,0-0.7,0-0.9,0c-0.1-0.2,0-0.3,0.1-0.5l0.1-0.1c0-0.2,0.2-0.3,0.5-0.3c0.2,0,0.6,0,0.8,0
		c0.1,0,0.2,0,0.3-0.1c0,0,0.1,0,0.2,0c0.2,0,0.3,0,0.5-0.1c0.1-0.1,0.3,0,0.5,0s0.2,0.3,0.1,0.6c-0.1,0.2-0.2,0.6-0.2,0.9
		c0,0.1-0.1,0.2-0.1,0.3c-0.1,0.2-0.2,0.3-0.2,0.6c0.3,0.1,0.5,0,0.5-0.3c0-0.1,0-0.3,0.1-0.5c0.1-0.2,0.2-0.6,0.5-0.8
		c0.1-0.1,0.2-0.3,0.5-0.6c0.2-0.2,0.5-0.2,0.7-0.5c0.1,0,0.2,0,0.3,0c0,0.3,0.3,0.3,0.6,0.5c-0.1,0.3,0.2,0.6,0.1,0.9
		c0,0.1,0,0.2-0.1,0.3v0.1c0,0.3-0.2,0.5-0.2,0.7c-0.2,0-0.2,0.2-0.5,0.3l-0.1,0.1c-0.1,0-0.1,0-0.2,0c0,0,0-0.1-0.1-0.1
		c-0.3,0-0.5-0.2-0.7-0.5l0,0c-0.1,0.1-0.2,0.2-0.2,0.3v0.1c-0.1,0.1-0.2,0.2-0.2,0.5c0,0.2-0.2,0.2-0.2,0.5
		c-0.1,0.2-0.3,0.5-0.5,0.7c0,0,0,0.1,0,0.2c0,0.2-0.1,0.3-0.2,0.5c-0.1,0.2-0.2,0.3-0.3,0.6c0,0.1-0.1,0.1-0.1,0.2
		s-0.1,0.1-0.1,0.2c0,0.1,0,0.2-0.1,0.3c0,0,0,0.1,0,0.2s0,0.2-0.1,0.3C199.6,142,199.8,142.1,199.6,142.4z"/>
	<path class="st3" d="M129.1,137.6c0.2,0.1,0.3,0,0.3-0.1c0.1-0.2,0.2-0.5,0.3-0.8v-0.1c0-0.2,0-0.3,0.2-0.5c0,0,0-0.1,0.1-0.1
		c0.1-0.1,0.1-0.3,0.3-0.3c0.1,0,0.2-0.2,0.2-0.2c0.2-0.2,0.6-0.3,0.8-0.6h0.1c0.3,0.1,0.6,0.5,0.8,0.8c0,0.1,0.1,0.1,0.1,0.2
		c0,0.1,0,0.1,0,0.2s-0.1,0.1-0.1,0.2c0,0.3-0.2,0.6-0.3,0.9c-0.1,0.1-0.1,0.3-0.2,0.5c-0.2,0-0.5,0.1-0.7,0.1
		c-0.1,0-0.2-0.1-0.5-0.1v-0.1c-0.1-0.1-0.1-0.2-0.3-0.2c-0.1,0.2-0.1,0.3-0.2,0.6l-0.1,0.1c-0.2,0.1-0.3,0.2-0.5,0.5
		c-0.1,0.2-0.3,0.3-0.3,0.7c0,0.2-0.2,0.5-0.3,0.7c-0.1,0.1-0.1,0.2-0.2,0.5c-0.1,0.2-0.1,0.3-0.1,0.6c-0.1,0.2-0.2,0.3-0.3,0.6
		c0,0-0.1,0.1,0,0.1c0.1,0.2-0.1,0.5-0.1,0.7c0,0.1-0.1,0.2-0.3,0.2c-0.5,0-0.8,0-1.3,0c-0.1,0-0.2,0-0.2,0.1
		c-0.1,0.1-0.1,0.1-0.2,0c-0.1-0.1-0.1-0.1,0-0.2c0,0,0,0,0-0.1c-0.1-0.3,0.1-0.6,0.1-0.9c0-0.1,0-0.2,0.1-0.3c0,0,0,0,0.1-0.1
		c0.2-0.1,0.2-0.3,0.2-0.6c0-0.2,0.1-0.5,0.2-0.7c0,0,0,0,0-0.1c0-0.2,0.1-0.3,0.2-0.5c-0.1-0.2-0.1-0.3,0-0.6v-0.1
		c0-0.3,0.1-0.7,0.3-1c0.1-0.1,0-0.3,0-0.5c0-0.1,0-0.2,0.1-0.3c0-0.1-0.1-0.2-0.1-0.3c-0.2,0-0.5-0.1-0.7,0.1c-0.1,0.1-0.2,0-0.3,0
		c-0.1-0.1,0-0.3,0.1-0.5l0.1-0.1c0-0.2,0.2-0.3,0.5-0.3s0.6,0,0.8,0c0.1,0,0.2,0,0.3-0.1h0.2c0.2,0,0.6,0.1,0.8-0.1
		c0,0,0.1,0,0.2,0c0.1,0,0.1,0.1,0.2,0.1c0.1,0.1,0,0.1,0,0.2v0.1c0,0.1,0,0.2-0.1,0.5c-0.1,0.1-0.2,0.3-0.1,0.5c0,0,0,0.1-0.1,0.1
		c-0.1,0.1-0.2,0.2-0.1,0.5c0,0.1,0,0.2-0.1,0.3C129.1,137.5,129.1,137.5,129.1,137.6z"/>
	<path class="st3" d="M138.8,140c0.1,0.1,0.1,0.2,0.1,0.3v0.1c0,0.3,0.2,0.6,0.2,0.8c0,0.1,0.1,0.1,0.2,0.1c0.1,0,0.1,0.1,0.1,0.1
		c0,0.1,0.1,0.1,0.2,0.1c0.2,0.1,0.3,0.2,0.6,0.2c0.2,0,0.3-0.1,0.6-0.1c0.1,0,0.1-0.1,0.1-0.2c0.1-0.1,0.1-0.2,0.2-0.3
		c0.1-0.1,0.1-0.2,0-0.2c-0.1-0.1-0.1-0.2-0.1-0.3c-0.1-0.2-0.2-0.5-0.3-0.7c0-0.1-0.1-0.1-0.2-0.2c0-0.1,0-0.1,0-0.2
		c-0.1,0-0.2,0-0.2-0.2c-0.2-0.1-0.2-0.3-0.5-0.5c-0.1-0.1-0.2-0.3-0.3-0.5c0-0.1-0.1-0.2-0.2-0.3c-0.1-0.1-0.2-0.2-0.2-0.5v-0.1
		c-0.2-0.2-0.1-0.5-0.1-0.7c0-0.1,0-0.2,0.1-0.3v-0.1c0-0.2,0-0.3,0.2-0.5c0.1-0.1,0.2-0.2,0.5-0.3c0.2-0.1,0.3-0.2,0.6-0.3
		c0.2-0.1,0.5-0.1,0.6-0.1c0.1,0,0.3,0,0.6,0c0.2,0,0.5,0.1,0.7,0.2c0.2,0.1,0.7,0.1,0.8-0.1c0.1-0.1,0.2-0.1,0.3-0.2h0.1
		c0.1,0,0.1,0.1,0.2,0.1c0,0.1,0.1,0.3-0.1,0.5c0,0,0,0.1,0,0.2c0,0.1,0,0.2-0.1,0.2l0,0c0.1,0.3-0.1,0.6-0.1,0.8
		c0,0.2-0.1,0.3-0.1,0.6c0,0.1-0.1,0.1-0.3,0c0,0-0.1,0-0.2,0c0.1-0.1,0.1-0.2,0-0.3c-0.1-0.1-0.1-0.3-0.1-0.5s-0.1-0.2-0.1-0.3
		c-0.1-0.1-0.3-0.3-0.5-0.5c-0.1-0.1-0.2-0.2-0.3-0.2c-0.1,0-0.2,0.1-0.3,0.1c-0.1,0-0.1,0-0.2,0.1c-0.2,0.1-0.2,0.2-0.2,0.5
		s0,0.3,0.1,0.6c0.1,0.1,0.1,0.2,0.2,0.3c0,0.1,0.1,0.2,0.2,0.3c0.1,0.1,0.1,0.1,0.1,0.2v0.1c0.2,0,0.2,0.3,0.3,0.5s0.2,0.3,0.5,0.5
		c0.1,0,0.2,0.1,0.2,0.2c0,0.2,0.1,0.3,0.1,0.6c0.1,0.1,0.1,0.2,0.1,0.3c0,0.3,0,0.6,0,0.9c0,0.2,0,0.5-0.2,0.6v0.1
		c0,0.3-0.2,0.5-0.5,0.5c-0.1,0-0.1,0.1-0.2,0.2c-0.1,0.1-0.2,0.2-0.5,0.2c-0.1,0-0.1,0-0.2,0c-0.1,0.2-0.3,0.2-0.6,0.2
		c-0.1,0-0.1,0-0.2,0.1c-0.1,0-0.3,0.1-0.5,0c-0.1,0-0.2-0.1-0.3-0.1c-0.1,0-0.1,0-0.2-0.1c-0.1,0-0.1,0-0.2,0c-0.1,0-0.2,0-0.3-0.1
		c-0.2-0.1-0.5-0.1-0.7,0.1c-0.2,0.2-0.6,0.1-0.7,0c0,0,0-0.1,0-0.2s0.1-0.1,0.1-0.2c0-0.2,0-0.5,0.1-0.6c0-0.1,0-0.2,0-0.2
		c0-0.1,0-0.3,0.1-0.5c0,0,0-0.1,0-0.2s0-0.1,0.1-0.2s0.1-0.2,0.2-0.2C138.6,139.9,138.6,139.9,138.8,140L138.8,140z"/>
	<path class="st3" d="M143.9,140.2c0.2-0.2,0.5-0.1,0.7-0.1c-0.1,0.5,0.2,0.8,0.3,1.2c0,0.1,0.2,0.2,0.2,0.5l0.1,0.1
		c0.2,0,0.5,0.1,0.6,0.1c0.1,0,0.1,0.1,0.2,0.1c0,0,0,0,0.1,0c0.1-0.1,0.3-0.1,0.5-0.2c0.1-0.1,0.1-0.3,0.2-0.5c0-0.1,0-0.2,0-0.2
		c-0.2-0.1-0.2-0.5-0.2-0.7c0,0,0,0,0-0.1c-0.3-0.1-0.5-0.3-0.6-0.7v-0.1c-0.2,0-0.2-0.2-0.2-0.2c-0.1-0.1-0.2-0.2-0.2-0.3
		c0,0,0-0.1-0.1-0.1c-0.1-0.1-0.3-0.2-0.3-0.5c-0.3-0.2-0.3-0.7-0.6-0.9c0-0.2-0.1-0.6,0.1-0.8c0.1-0.1,0.2-0.2,0.1-0.5
		c0-0.1,0.3-0.5,0.5-0.5s0.2,0,0.3-0.1c0.1-0.1,0.2-0.2,0.5-0.2h0.1c0.3-0.2,0.7-0.1,1-0.1c0.3,0.2,0.7,0.1,0.9,0.1
		c0.1,0,0.1,0.1,0.2,0.1c0.1-0.1,0.2-0.2,0.2-0.2c0.1-0.1,0.5-0.1,0.6,0c0.1,0.1,0.1,0.1,0,0.2l-0.1,0.1c0,0.2,0,0.5-0.1,0.6
		c0.1,0.3-0.1,0.6-0.1,0.9c0,0.2-0.1,0.3-0.1,0.6c0,0.1-0.2,0.2-0.3,0.1c-0.1,0-0.2-0.1-0.2-0.3c0-0.1,0-0.2,0.1-0.5
		c-0.2,0-0.2-0.2-0.3-0.5c0-0.1-0.1-0.2-0.1-0.3l-0.1-0.1c0-0.1,0-0.1-0.1-0.1h-0.1c-0.2-0.3-0.5-0.2-0.8-0.2
		c-0.1,0-0.2,0.2-0.3,0.3c0,0.1,0,0.3,0,0.5s0.1,0.2,0.1,0.3h0.1c0,0.2,0.1,0.5,0.3,0.6c0.1,0.1,0.2,0.3,0.3,0.6
		c0.1,0.1,0.2,0.2,0.3,0.3c0.1,0.2,0.2,0.3,0.3,0.6c0.1,0.1,0,0.2,0.1,0.3c0.1,0.1,0,0.3,0.1,0.5c0,0,0,0.2-0.1,0.3
		c0.1,0.2,0.1,0.5,0,0.7l0,0c0,0.2,0,0.5-0.2,0.6c-0.1,0.3-0.5,0.6-0.8,0.7c-0.1,0.1-0.3,0.2-0.5,0.2c-0.1,0-0.1,0.1-0.2,0.1
		c-0.3,0-0.8,0-1.2,0c-0.3-0.1-0.7-0.1-1-0.3c-0.2,0.1-0.5,0.2-0.6,0.3c-0.1,0-0.2,0-0.3-0.1s-0.1-0.2,0-0.3
		c0.1-0.1,0.1-0.2,0.1-0.2c0-0.2,0-0.5,0-0.7c0-0.2,0-0.5,0.2-0.7C144.1,140.3,143.9,140.3,143.9,140.2z M148.1,135.5
		C148.1,135.5,148.1,135.6,148.1,135.5c0.1,0.1,0.2,0.1,0.2,0C148.3,135.5,148.2,135.5,148.1,135.5z"/>
	<path class="st3" d="M35.5,137h0.1c0.1-0.1-0.1-0.2,0-0.3c0.1-0.1,0.1-0.2,0.1-0.3s0-0.2,0-0.3c-0.3-0.1-0.7,0.1-0.9-0.2
		c0-0.1,0.1-0.2,0.1-0.3c0.1,0,0.2,0,0.3-0.1h0.2c0.2,0,0.6,0.1,0.8-0.1c0.3,0,0.6-0.2,0.9-0.1c0.1,0,0.1,0,0.2-0.1
		c0.1,0,0.2,0,0.3,0c0.1,0,0.3,0,0.5-0.1c0.1-0.1,0.2,0,0.2,0.1c0.1,0.1,0.1,0.2,0,0.3c-0.2,0.2-0.2,0.5-0.5,0.7c0,0,0,0.1,0,0.2
		c0,0.2-0.1,0.5-0.2,0.7c-0.1,0.1-0.1,0.3-0.1,0.5s-0.1,0.2-0.1,0.3c-0.1,0.1-0.1,0.3-0.1,0.5c-0.1,0.2,0,0.5-0.2,0.6
		c0,0,0,0-0.1,0.1c0,0.2-0.1,0.3-0.1,0.6c0,0.1-0.1,0.2-0.1,0.3c-0.1,0.2-0.2,0.5-0.2,0.8c0,0.1-0.1,0.1-0.1,0.2s0,0.1,0,0.2
		c0.1,0,0.3,0,0.5,0c0-0.1,0-0.2,0-0.3c0.1,0,0.3-0.1,0.3-0.3c0-0.1,0.1-0.2,0.2-0.3h0.1c0.1,0.1,0.3,0.2,0.2,0.6v0.1
		c-0.1,0.1-0.3,0.1-0.5,0.2c-0.1,0.5-0.3,0.7-0.7,0.8l-0.1,0.1c-0.2,0.2-0.5,0.5-0.8,0.3h-0.1c-0.1,0.1-0.1,0-0.1,0
		c-0.1,0-0.3,0-0.5,0s-0.2,0-0.3-0.1c-0.1-0.2-0.3-0.3-0.2-0.6c0-0.1,0-0.1,0-0.2c-0.1-0.1-0.1-0.2,0-0.3c0,0,0-0.1,0-0.2
		c0-0.1,0-0.3,0-0.5c0-0.2,0-0.5,0.2-0.7v-0.1c0-0.2,0-0.3,0.2-0.5c0,0,0.1-0.1,0.1-0.2s0-0.2,0-0.3c0-0.1,0-0.1,0.1-0.2
		c0.2-0.2,0.3-0.5,0.3-0.7C35.4,137.4,35.5,137.3,35.5,137z"/>
	<path class="st3" d="M218.4,139.6c0.1,0.2,0,0.3-0.1,0.5c0,0,0,0.1,0,0.2c0,0.1-0.2,0.2-0.2,0.3s-0.1,0.2-0.1,0.5
		c0,0.2,0.1,0.3,0.2,0.3c0.1,0,0.2-0.1,0.2-0.3V141c0.2,0,0.3-0.1,0.3-0.3c0-0.1,0.1-0.1,0.1-0.2c0.1-0.1,0.1,0,0.2,0h0.1
		c0.1,0,0.2,0.1,0.2,0.3c0,0.1-0.1,0.2-0.2,0.3c0,0,0,0-0.1,0v0.1c0,0,0,0.1,0,0.2c-0.2,0-0.2,0.1-0.3,0.2c-0.1,0.2-0.3,0.5-0.7,0.5
		h-0.1c-0.1,0.3-0.5,0.3-0.7,0.3s-0.6,0-0.8,0c-0.1,0-0.2-0.1-0.3-0.2c-0.1-0.1-0.2-0.3-0.1-0.5v-0.1c-0.1-0.1,0-0.2,0-0.3
		c-0.1-0.2-0.1-0.3,0-0.6c0-0.1,0-0.2,0-0.3c-0.1-0.2-0.1-0.3,0.2-0.3c0,0,0,0,0.1,0c0-0.2,0-0.5,0-0.7s0.1-0.3,0.1-0.6
		c0,0,0.1,0,0.2-0.1c0-0.2,0-0.6,0.2-0.8v-0.1c0-0.2,0-0.3,0.2-0.5c0.1-0.1,0.1-0.1,0-0.2c0,0,0-0.1,0-0.2c0.1-0.2,0.1-0.2,0.1-0.5
		c-0.2-0.2-0.6-0.2-0.8-0.2c-0.1-0.3,0-0.5,0.3-0.5c0.1,0,0.2,0,0.2-0.1c0,0,0,0,0.1,0c0.3,0,0.6-0.1,0.9-0.1h0.1
		c0.2-0.2,0.6-0.1,0.8-0.1c0.2,0,0.6-0.1,0.8-0.2c0.1-0.1,0.2,0,0.2,0.1c0.1,0.1,0.1,0.1,0,0.2c-0.1,0.1-0.2,0.2-0.2,0.3l-0.1,0.1
		c0,0.2-0.1,0.3-0.1,0.6c0,0.1-0.1,0.2-0.1,0.3c-0.1,0.1-0.1,0.3-0.2,0.5c-0.1,0.3-0.1,0.7-0.3,0.9c0,0,0,0.1,0,0.2s0,0.2-0.1,0.2
		v0.1c0,0.2-0.1,0.3-0.1,0.5C218.6,139.5,218.5,139.5,218.4,139.6z"/>
	<path class="st3" d="M38.9,133.1c-0.1,0-0.2,0-0.2,0.2c-0.1,0.1-0.2,0.1-0.3,0.2c-0.1,0-0.3,0-0.6,0.1c-0.1,0-0.2,0-0.3-0.1
		c-0.1-0.1-0.2-0.2-0.3-0.2c-0.1,0-0.1-0.1-0.2-0.1c-0.1-0.1,0.1-0.3-0.1-0.5c0.1-0.1,0-0.2,0-0.3s0-0.3,0-0.5s0.2-0.3,0.3-0.3
		c0.2,0,0.3-0.1,0.5-0.2c0.1-0.2,0.3-0.2,0.6-0.1c0.1,0.1,0.3,0.1,0.5,0.1c0.2,0.2,0.5,0.3,0.6,0.7c0.1,0.1,0.2,0.2,0,0.3
		C39.1,132.6,38.9,132.8,38.9,133.1z"/>
	<path class="st3" d="M219.3,133.8c-0.3,0.1-0.7-0.1-0.9-0.3c-0.1-0.1-0.2-0.3-0.2-0.6c0-0.2,0-0.3,0-0.6c0-0.3,0.1-0.6,0.5-0.7
		c0.2-0.1,0.5-0.2,0.7-0.3c0,0,0.1,0,0.2,0c0.1,0,0.3,0.2,0.5,0.2c0,0,0.1,0,0.1,0.1c0.5,0.5,0.5,0.5,0.5,1c0,0.2-0.1,0.5-0.2,0.7
		h-0.1c-0.1,0.3-0.3,0.3-0.7,0.3C219.5,133.8,219.4,133.8,219.3,133.8z"/>
	<path class="st3" d="M165.7,132.5c-0.1,0-0.1,0-0.2,0l0,0C165.4,132.5,165.6,132.5,165.7,132.5
		C165.6,132.5,165.7,132.5,165.7,132.5z"/>
	<path class="st3" d="M165,132.8c0-0.1,0-0.1,0-0.2C165.1,132.6,165.1,132.7,165,132.8z"/>
	<path class="st3" d="M219.4,134.3c0,0-0.1,0-0.2,0l0,0C219.3,134.3,219.3,134.2,219.4,134.3C219.4,134.2,219.4,134.3,219.4,134.3
		L219.4,134.3z"/>
	<path class="st3" d="M141.4,135.7c0.1,0,0.1,0,0.2,0l0,0C141.5,135.9,141.5,135.9,141.4,135.7C141.4,135.9,141.4,135.9,141.4,135.7
		z"/>
	<path class="st3" d="M65.5,141.3c0.1,0,0.1,0,0.2,0l0,0C65.6,141.3,65.5,141.3,65.5,141.3L65.5,141.3z"/>
	<path class="st3" d="M41.4,114.8c0.1,0,0.1,0,0.2,0l0,0C41.5,114.8,41.5,114.8,41.4,114.8L41.4,114.8L41.4,114.8z"/>
	<path class="st3" d="M193.1,142.5c0.1,0,0.1,0,0.2,0l0,0C193.2,142.6,193.1,142.6,193.1,142.5C193.1,142.6,193.1,142.5,193.1,142.5
		z"/>
	<path class="st3" d="M122.3,138.3c0.1,0,0.2,0,0.3,0c-0.1,0.1-0.1,0.2-0.3,0.2C122.3,138.4,122.3,138.3,122.3,138.3z"/>
	<path class="st3" d="M207.1,136.2c0,0.1,0,0.1,0,0.2C207,136.3,207,136.2,207.1,136.2z"/>
	<g>
		<path class="st3" d="M31.2,115.8c-0.1,0.5-0.2,0.9-0.3,1.5c0,0.6-0.1,1-0.2,1.5c-0.1,0.5-0.2,0.8-0.5,1c-0.1,0.2-0.3,0.3-0.7,0.3
			c-0.3,0-0.8-0.1-1.4-0.3c-0.6-0.2-1.2-0.3-1.7-0.5s-1,0-1.5,0.1c0,0.3-0.1,0.8-0.1,1.4c0,0.6,0,1.2,0.1,1.9c0,0.7,0,1.4,0,1.9
			c0,0.6-0.1,1-0.1,1.4c-0.1,0.2-0.3,0.5-0.6,0.7s-0.5,0.2-0.8,0.1c-0.2-0.1-0.5-0.2-0.6-0.5c-0.1-0.2-0.1-0.5-0.1-0.7
			c0-0.3,0-0.8,0-1.4s0-1.2-0.1-2c0-0.7-0.1-1.4-0.1-1.9c0-0.6-0.1-1-0.1-1.4c-0.1,0.3-0.3,0.7-0.7,0.8c-0.3,0.2-0.8,0.3-1.3,0.5
			c-0.6,0.1-1,0.2-1.4,0.5c-0.3,0.2-0.6,0.6-0.8,0.9c-0.1,0.2-0.2,0.3-0.3,0.5c-0.2,0.1-0.3,0.1-0.6,0.1c-0.2-0.1-0.5-0.2-0.6-0.5
			c-0.1-0.2-0.2-0.5-0.2-0.6c0.1-0.6,0.2-1.3,0.2-1.9c0-0.7-0.1-1.3-0.3-2c-0.2-0.6-0.5-1.3-0.7-1.7c-0.2-0.6-0.3-1-0.5-1.5
			c0.1-0.5,0.5-0.9,0.8-1.2c0.3-0.2,0.9-0.2,1.5-0.1c0.7,0.2,1.2,0.3,1.6,0.5c0.5,0.1,0.8,0.1,0.9,0c0.1,0,0.2,0,0.5,0
			c0.2,0,0.5,0,0.7,0s0.5,0,0.7,0c0.1,0,0.3,0,0.3,0c0-0.3,0.1-0.8,0.2-1.3c0.1-0.5,0.3-0.9,0.8-1.3c0.3-0.3,0.7-0.3,1-0.1
			c0.3,0.2,0.6,0.5,0.8,0.8c0,0.1,0.1,0.2,0,0.3c0,0.1-0.1,0.3-0.2,0.5c-0.1,0.2-0.1,0.3-0.1,0.5c0,0.1,0,0.2,0.1,0.3
			c0.2,0.1,0.5,0.1,0.8,0.1c0.3,0,0.8,0.1,1.3,0.1s0.9,0.1,1.3,0.3c0.3,0.1,0.6,0.3,0.8,0.6c0.1-0.2,0.3-0.5,0.7-0.6
			c0.3-0.2,0.6-0.2,1-0.1c0.3,0.1,0.6,0.2,0.8,0.5c0.1,0.2,0.2,0.5,0.1,0.7C31.5,115.2,31.3,115.5,31.2,115.8z M19.2,118.6
			c0.3-0.1,0.7-0.1,1.2-0.2c0.5-0.1,0.8-0.1,1.2,0c0.3,0.1,0.6,0.2,0.8,0.3c0-0.2,0-0.5,0-0.7c0-0.2,0-0.6-0.1-0.9
			c0-0.3,0-0.7-0.1-0.9c0-0.2,0-0.5,0-0.7c-0.2,0-0.5,0-0.7,0c-0.3,0-0.7,0-1,0c-0.5,0-0.8,0-1,0.1c-0.3,0.1-0.6,0.2-0.7,0.3
			c0,0.1,0.1,0.3,0,0.6c0,0.2-0.1,0.6-0.1,0.8c-0.1,0.3-0.1,0.6-0.1,0.8c0,0.2,0.1,0.3,0.2,0.6C18.6,118.8,19,118.6,19.2,118.6z
			 M28.5,117.2c0-0.1,0.1-0.3,0.1-0.6c0-0.2,0.1-0.5,0.1-0.6c0-0.2,0.1-0.3,0.1-0.5c-0.1-0.1-0.3-0.1-0.7-0.1c-0.2,0-0.7,0-1,0.1
			c-0.5,0.1-0.8,0.1-1.2,0.1s-0.7-0.1-0.9-0.2c0,0.1,0,0.3-0.1,0.6c0,0.2,0,0.5-0.1,0.8c0,0.3,0,0.6,0,0.8c0,0.2,0,0.3,0,0.6
			c0.2,0,0.5,0,0.8,0c0.3,0,0.8,0,1.3,0.1c0.5,0,0.8,0,1-0.1c0.2-0.1,0.3-0.2,0.5-0.5C28.5,117.5,28.5,117.4,28.5,117.2z"/>
		<path class="st3" d="M47.6,111.7c0.7,0,1.4,0,2.2,0.1c0.8,0.1,1.6,0.2,2.2,0.5c0.6,0.2,1.2,0.3,1.5,0.5c0.5-0.1,0.8,0,1.2,0.2
			c0.3,0.2,0.5,0.7,0.5,1.4s-0.1,1.3-0.2,1.7c-0.1,0.5-0.1,0.9,0,1.2c0,0.5,0,1,0,1.9c0,0.7,0,1.5,0.1,2.4c0,0.9,0,1.7,0,2.4
			s-0.1,1.3-0.2,1.7c-0.3,0.2-0.7,0.3-1,0.2c-0.3-0.1-0.6-0.3-0.7-0.9c-0.1-0.6-0.2-1.2-0.1-1.6c0-0.5,0-0.8,0-0.9v-0.8
			c0-0.2,0-0.5,0-0.8c0-0.3,0-0.7-0.1-1.2c0-0.5,0-0.8-0.1-1.2c0-0.3,0-0.6,0-0.8c-0.1,0.1-0.3,0.1-0.7,0.1c-0.2,0-0.6,0.1-0.9,0.1
			s-0.7,0.1-0.9,0.1c-0.2,0-0.5,0.1-0.7,0.1c0,0.1,0,0.3,0,0.6c0,0.2,0,0.5,0,0.8s0,0.6-0.1,0.9c0,0.2,0,0.5-0.1,0.7h1l0.1-0.1
			c0-0.1,0-0.3,0-0.8c0-0.3,0.1-0.7,0.2-1.2c0.1-0.3,0.3-0.5,0.6-0.3s0.5,0.3,0.7,0.7c0,0.1,0,0.5,0.1,0.8c0,0.3,0.1,0.7,0.1,1.2
			s-0.1,0.8-0.3,1c-0.2,0.2-0.5,0.5-0.7,0.5c-0.2-0.1-0.6-0.1-1-0.1c-0.3,0-0.9,0-1.4,0c-0.6,0-1,0.1-1.4,0.1c-0.3,0-0.7,0.1-1,0.1
			h-0.1c-0.1,0-0.1-0.1-0.1-0.1c0-0.1,0-0.1,0-0.2v-0.1c0-0.1,0-0.1,0-0.2s0-0.2,0.1-0.3c0-0.1,0.1-0.2,0.1-0.3c0-0.1,0-0.1,0-0.2
			V121c-0.1-0.1-0.1-0.3-0.1-0.7s0.1-0.7,0.3-1c0.2-0.3,0.5-0.5,0.6-0.3s0.2,0.3,0.3,0.7c0,0.1,0,0.2-0.1,0.3
			c-0.1,0.1,0,0.3-0.1,0.5c0,0.2,0,0.3,0,0.5c0,0.1,0,0.2,0,0.3c0,0,0.1,0,0.2-0.1c0.1,0,0.2,0,0.2,0c0.1,0,0.2,0,0.2-0.1l0.1-0.1
			v-0.3c0-0.1,0-0.3,0-0.5c0-0.2,0-0.5,0-0.7c0-0.2,0-0.5,0.1-0.7c0-0.2,0-0.3,0.1-0.5c-0.1,0-0.3,0-0.6,0s-0.5,0-0.8,0.1
			c-0.2,0-0.6,0-0.8-0.1c-0.2-0.1-0.3-0.1-0.6-0.2c0,0.3,0,0.9,0,1.5c0,0.6,0,1.3,0,2.1s-0.1,1.5-0.2,2.1c-0.1,0.6-0.3,1-0.6,1.5
			c0,0.1-0.1,0.1-0.2,0.1s-0.2,0-0.5-0.1c-0.1-0.1-0.3-0.2-0.3-0.3c-0.1-0.1-0.1-0.2-0.1-0.3c0.1-0.2,0.1-0.6,0.2-0.9
			s0.1-0.8,0.2-1.3c0-0.5,0.1-0.9,0.1-1.3s0-0.7,0-0.9c0-0.3,0-0.7-0.1-1.2c0-0.5,0-1-0.1-1.6c0-0.6-0.1-1.2-0.1-1.6
			c-0.1-0.5-0.1-0.8-0.2-1.2c-0.1,0-0.3-0.1-0.5-0.2c-0.2-0.1-0.5-0.2-0.7-0.3c-0.2-0.1-0.5-0.3-0.7-0.5c-0.2-0.1-0.3-0.3-0.5-0.5
			c-0.3,0-0.7,0.2-1.2,0.5c-0.5,0.2-1,0.6-1.6,0.9c-0.6,0.3-1.2,0.6-1.6,0.6c-0.5,0.1-0.9,0-1.2-0.1c0,0,0-0.1-0.1-0.1
			c0,0,0-0.1-0.1-0.1v-0.1v-0.1c0-0.2,0-0.5,0-0.8s0.2-0.6,0.6-0.9c0.3-0.2,0.7-0.3,1-0.3s0.6,0.1,0.8,0.3c0.2,0,0.5,0,0.8-0.1
			c0.3-0.1,0.7-0.2,1.2-0.5c0.5-0.2,0.8-0.3,1.2-0.5s0.6-0.2,0.8-0.2c0.1,0.1,0.2,0.2,0.3,0.5c0.1,0.2,0.3,0.5,0.6,0.7
			c0.2,0.2,0.5,0.5,0.7,0.6s0.3,0.2,0.5,0.2c0-0.2,0.1-0.3,0.2-0.7c0.1-0.2,0.3-0.6,0.6-0.8c0.3-0.2,0.6-0.3,0.8-0.3
			c0.2,0,0.5,0.1,0.6,0.2C46.4,111.7,47,111.7,47.6,111.7z M40.7,117.7c0.1,0,0.3,0,0.6,0s0.6,0.1,0.8,0.2c0.2,0.1,0.5,0.3,0.5,0.6
			c0,0.2,0,0.5-0.1,0.7l-1.7,0.2c0,0.1,0,0.3,0,0.6c0,0.2,0,0.5-0.1,0.8c0,0.3,0,0.6,0.1,0.8c0,0.2,0.1,0.5,0.2,0.6
			c0.1,0,0.3,0,0.7,0c0.3,0,0.7,0.2,1,0.5c0.3,0.2,0.5,0.5,0.5,0.7c-0.1,0.2-0.2,0.5-0.6,0.6c-0.3,0-0.7,0-1.2,0.1
			c-0.5,0.1-1,0.2-1.6,0.3c-0.6,0.1-1.2,0.3-1.5,0.3c-0.5,0.1-0.8,0.1-1,0.1c0-0.1-0.1-0.1-0.1-0.2c0-0.1,0-0.1-0.1-0.2
			c0-0.1,0-0.1-0.1-0.2c0-0.1,0-0.1-0.1-0.2c0.1-0.1,0.3-0.3,0.6-0.5c0.2-0.2,0.5-0.3,0.8-0.5c0.3-0.1,0.6-0.2,0.8-0.3
			c0.2,0,0.5-0.1,0.6-0.1c0-0.1,0-0.3,0-0.7c0-0.2,0-0.6,0.1-0.9c0-0.3,0-0.6,0.1-0.8c0-0.2,0-0.5,0-0.6c-0.1,0-0.2,0-0.5,0
			c-0.2,0-0.5,0-0.7-0.1c-0.2-0.1-0.5-0.2-0.6-0.3c-0.1-0.1-0.2-0.3-0.2-0.6c0.1-0.1,0.2-0.2,0.3-0.3c0.1-0.1,0.3-0.1,0.6-0.2
			c0.2,0,0.5-0.1,0.7-0.1c0.2,0,0.3,0,0.5-0.1v-1.4c-0.1,0-0.2,0-0.3,0.1c-0.1,0-0.3,0.1-0.6,0.1c-0.2,0-0.5,0-0.6-0.1
			c-0.1-0.1-0.2-0.2-0.3-0.3c0.2-0.1,0.6-0.3,0.9-0.5c0.3-0.1,0.8-0.2,1.4-0.2s1,0,1.4,0.1c0.3,0.1,0.7,0.1,1,0.2
			c0,0.1,0,0.2-0.1,0.5c-0.1,0.1-0.2,0.2-0.5,0.3c-0.2,0.1-0.5,0.1-0.6,0.1c-0.2,0-0.3,0.1-0.5,0.1L40.7,117.7z M37.5,121
			c0-0.2,0.2-0.6,0.5-0.8c0.2-0.2,0.5-0.2,0.6-0.1s0.2,0.3,0.2,0.7c0,0.1,0,0.2,0,0.3c0,0.1-0.1,0.2-0.2,0.3
			c-0.1,0.1-0.2,0.2-0.3,0.3c-0.1,0.1-0.2,0.2-0.3,0.3l-0.1-0.1l-0.1-0.1l-0.1-0.1v-0.1C37.3,121.5,37.3,121.3,37.5,121z
			 M42.2,120.9c0,0,0-0.1-0.1-0.1c0,0,0-0.1-0.1-0.1l-0.1-0.1c0.1-0.3,0.3-0.5,0.6-0.5s0.5,0.2,0.6,0.6s0.1,0.7,0,0.7
			C42.9,121.3,42.7,121.2,42.2,120.9C42.3,121,42.2,120.9,42.2,120.9z M45.7,114.8c0,0.2,0,0.5-0.1,0.7c0,0.2,0,0.5,0,0.7
			c0,0.2,0,0.3,0,0.6c0.1,0,0.2-0.1,0.3-0.2c0.1-0.1,0.2-0.1,0.3-0.2c0.1-0.1,0.2-0.1,0.3-0.1c0.1,0,0.1,0,0.2,0c0-0.1,0-0.3,0-0.5
			c0-0.2,0-0.5,0.1-0.8c0.1-0.2,0.2-0.5,0.3-0.6c0.2-0.1,0.3-0.1,0.5-0.1c0.1,0.1,0.1,0.2,0.1,0.5c0,0.1,0.1,0.3,0.1,0.5
			c0,0.2,0,0.3,0,0.5s0,0.2,0,0.3h1.7c0-0.1,0-0.3,0.1-0.5c0-0.2,0-0.5,0.1-0.7c0-0.2,0.1-0.5,0.2-0.6c0.1-0.1,0.2-0.3,0.3-0.5
			c-0.2,0-0.6,0-1-0.1c-0.3-0.1-0.9-0.1-1.4-0.1c-0.6,0-1,0-1.4,0.2c-0.3,0.1-0.7,0.3-0.9,0.5C45.7,114.5,45.7,114.7,45.7,114.8z
			 M51.2,114.3c0.1,0.2,0.1,0.5,0.1,0.7c0,0.2,0,0.5,0,0.7c0,0.2-0.1,0.3-0.1,0.6c0.1,0,0.2,0,0.3-0.1c0.1,0,0.2,0,0.5,0
			c0.1,0,0.3,0.1,0.5,0.1s0.2,0.1,0.3,0.1c0-0.1,0-0.3,0-0.6c0-0.2,0-0.5,0-0.8s0.1-0.6,0.1-0.8c0-0.2,0.1-0.5,0.1-0.6
			c-0.1,0-0.2,0-0.5,0.1c-0.1,0-0.3,0-0.6,0.1c-0.2,0-0.5,0-0.7,0c-0.2,0-0.3,0-0.5,0C51,114,51.1,114.1,51.2,114.3z"/>
		<path class="st3" d="M74.1,114.7c0-0.1,0-0.2,0.1-0.3c0-0.1,0.1-0.2,0.1-0.3s0.1-0.1,0.1-0.2v-0.1c0,0,0-0.1-0.1-0.1l-0.1-0.1
			h-0.1c-0.1,0.1-0.3,0.1-0.7,0.1c-0.2,0-0.6,0-0.9,0c-0.3,0-0.6,0-0.8,0.2c-0.2,0.1-0.3,0.3-0.5,0.6c0.1,0,0.3-0.1,0.7-0.1
			c0.3,0,0.6,0,0.8,0.1s0.3,0.2,0.2,0.5s-0.3,0.3-0.6,0.5c0,0-0.1,0-0.2,0.1c-0.1,0-0.2,0-0.3,0s-0.2,0-0.3,0c-0.1,0-0.2,0-0.2,0.1
			c0.1,0.2,0.2,0.3,0.6,0.5c0.2,0.1,0.6,0.1,0.9,0c0.3-0.1,0.7-0.1,1-0.1s0.6,0,0.7,0c0.1,0.1,0.2,0.3,0.2,0.6
			c0,0.2-0.1,0.6-0.2,0.9c-0.2,0.3-0.3,0.6-0.3,0.9c-0.1,0.2-0.1,0.5,0,0.6c-0.1,0.2-0.2,0.5-0.5,0.6c-0.2,0.2-0.5,0.2-0.9,0.3
			c-0.3,0-0.7,0-0.9,0c-0.2,0-0.5-0.1-0.6-0.1c0,0.2-0.1,0.3,0,0.6c0,0.2,0.2,0.3,0.3,0.3c0.2,0.1,0.5,0.1,0.7,0.1
			c0.2,0,0.3,0,0.5,0c0.1,0,0.5,0,0.8,0c0.5,0,0.8,0,1.3,0.1s0.7,0.3,0.7,0.6c0,0.2-0.1,0.6-0.5,0.8c-0.2,0.1-0.5,0.1-0.7,0.1
			c-0.3,0-0.7,0-1,0c-0.3-0.1-0.7-0.1-1-0.1c-0.3,0-0.6,0-0.7,0c0,0.1-0.1,0.2-0.1,0.3c0,0.1-0.1,0.2-0.1,0.5c0,0.1,0,0.3,0,0.5
			c0,0.1,0,0.2,0,0.3c0.3,0.1,0.8,0.2,1.3,0.3c0.5,0.1,1.2,0.2,1.7,0.3c0.7,0.1,1.3,0,1.7-0.1c0.5-0.1,0.9-0.2,1.3-0.5
			c0,0.2-0.1,0.6-0.3,1c-0.2,0.5-0.6,0.9-1.2,1.4c-0.6,0.5-1,0.8-1.5,0.9c-0.5,0.1-0.8,0.1-1,0c-0.8-0.5-1.7-0.9-2.8-1.4
			c-1.2-0.5-2.4-0.7-4-0.8c-1.5-0.1-2.8-0.1-4,0.1c-1.2,0.1-2.1,0.2-2.8,0.2c0,0-0.1-0.1-0.2-0.1c-0.1-0.1-0.1-0.1-0.2-0.2
			c0-0.1-0.1-0.2-0.1-0.2c0-0.1,0-0.1,0-0.1c0-0.1,0-0.3,0.1-0.6c0.1-0.2,0.2-0.3,0.6-0.6c0.2-0.1,0.5-0.2,0.7-0.2
			c0.2,0,0.3,0,0.5,0c0-0.1,0-0.5,0.1-0.9c0.1-0.5,0.2-0.8,0.5-1.3c0.2-0.5,0.6-0.7,0.8-0.6c0.3,0,0.6,0.2,0.8,0.5
			c0,0.1,0,0.3,0,0.5c0,0.2-0.1,0.5-0.2,0.7c-0.1,0.2-0.1,0.5-0.1,0.6c0,0.1,0,0.3,0.1,0.5c0.3,0,0.8,0,1.3,0c0.6,0,1.2,0,1.9,0.1
			c0.7,0,1.4,0.1,1.9,0.2c0.6,0.1,1,0.1,1.4,0.2l-0.1-1.2c-0.2,0-0.6,0-0.9,0.1c-0.3,0.1-0.8,0.1-1.3,0.1s-0.9-0.1-1.3-0.2
			c-0.3-0.2-0.6-0.3-0.8-0.7c0.1-0.2,0.5-0.5,0.8-0.6c0.3-0.1,0.8-0.2,1.3-0.2s0.9,0,1.3-0.1c0.3-0.1,0.7-0.2,0.8-0.3v-0.1v-0.1
			v-0.1v-0.1c-0.1,0-0.3,0-0.6,0s-0.6,0.1-0.9,0.2c-0.3,0.1-0.6,0.1-0.8,0c-0.2-0.1-0.3-0.2-0.3-0.5c0,0,0-0.1,0-0.2
			c0-0.1,0-0.2,0.1-0.3c0-0.1,0-0.2,0.1-0.3c0-0.1,0-0.2,0-0.2c0-0.1,0-0.3-0.1-0.5c-0.1-0.2-0.2-0.3-0.3-0.7
			c-0.1-0.2-0.2-0.5-0.3-0.6c-0.1-0.1-0.1-0.3-0.2-0.5c0.2-0.1,0.6-0.1,0.9,0c0.3,0.1,0.7,0.3,0.8,0.8c0.2,0.5,0.3,0.8,0.2,1.3
			c0,0.3-0.1,0.7-0.2,0.8c0.1,0,0.2-0.1,0.5-0.1c0.2,0,0.5,0,0.7-0.1c0.2,0,0.5-0.1,0.5-0.2c0-0.1,0-0.2,0-0.5c0,0-0.1-0.1-0.2-0.1
			c-0.1,0-0.2-0.1-0.3-0.1c-0.1,0-0.2-0.1-0.3-0.1c0-0.1-0.1-0.1-0.1-0.2c0,0,0.1,0,0.2-0.1c0.1,0,0.2-0.1,0.3-0.1
			c0.1,0,0.2-0.1,0.3-0.1s0.1-0.1,0.2-0.1v-0.1c-0.1,0-0.2,0-0.3-0.1c-0.1,0-0.2-0.1-0.5-0.1c-0.2,0-0.3-0.1-0.5-0.1
			c-0.1,0-0.2-0.1-0.3-0.1c0.1,0,0.2-0.1,0.3-0.2c0.1-0.1,0.2-0.1,0.5-0.2c0.1,0,0.3-0.1,0.5-0.1c0.1,0,0.2,0,0.3,0
			c0,0,0-0.1,0.1-0.1c0,0,0-0.1,0.1-0.1v-0.1V116c-0.1,0-0.2,0-0.5,0c-0.2,0-0.5,0-0.7,0s-0.5,0-0.7-0.1c-0.1-0.1-0.3-0.2-0.3-0.3
			l0.1-0.3c0.1-0.1,0.3-0.2,0.6-0.2s0.5-0.1,0.8-0.1c0.3,0,0.6-0.1,0.7-0.2c0.1-0.1,0.2-0.3,0.2-0.5c-0.2,0-0.5,0-0.9-0.1
			c-0.3,0-0.8,0-1.3,0c-0.5,0.1-0.8,0.2-0.9,0.6c-0.1,0.3-0.2,0.6-0.1,1c0,0,0,0,0,0.1c0,0,0,0-0.1,0.1l-0.1,0.1c0,0-0.1,0-0.1,0.1
			L66,116c-0.1-0.1-0.1-0.2-0.1-0.5s-0.1-0.3-0.1-0.7c0-0.2-0.1-0.5-0.1-0.7c0-0.2-0.1-0.3-0.1-0.5c0-0.2-0.1-0.3,0-0.6
			c0-0.2,0.1-0.3,0.3-0.5c0.2-0.1,0.5-0.1,0.7-0.1s0.5,0.1,0.6,0.1c0.5,0,1,0,1.7,0.1c0.7,0,1.5,0.1,2.4,0.1
			c0.9,0.1,1.7,0.1,2.4,0.2s1.3,0.2,1.7,0.3c0.1,0,0.2-0.1,0.5-0.1c0.1,0,0.3,0.1,0.6,0.2c0.2,0.1,0.3,0.3,0.3,0.5
			c0.1,0.1,0.1,0.2,0.1,0.3c-0.1,0.1-0.2,0.5-0.5,0.8c-0.2,0.3-0.5,0.7-0.8,0.9c-0.3,0.2-0.6,0.3-0.8,0.2s-0.3-0.3-0.5-0.7
			C74,114.8,74,114.8,74.1,114.7z M60.5,113.3c0.2-0.2,0.6-0.3,1-0.3s0.9,0,1.3,0.1c0.3,0,0.6,0.1,0.8,0.1l0.1,0.1l0.1,0.1v0.1v0.1
			c-0.2,0.1-0.5,0.3-0.8,0.6c-0.3,0.2-0.8,0.5-1.3,0.6c-0.5,0.1-0.9,0.1-1.2-0.1c-0.2-0.2-0.5-0.5-0.6-0.7
			C60,113.6,60.3,113.4,60.5,113.3z M63.4,115.7c-0.1,0.1-0.2,0.3-0.6,0.5s-0.6,0.3-0.8,0.5c-0.2,0.1-0.3,0.3-0.5,0.5
			s-0.2,0.1-0.5,0.1c-0.2,0-0.3,0-0.6-0.1s-0.3-0.2-0.3-0.5c-0.1-0.1-0.1-0.3-0.1-0.5c0.1-0.1,0.3-0.2,0.6-0.5
			c0.2-0.1,0.6-0.3,1-0.5c0.5-0.1,0.8-0.1,1-0.1c0.3,0,0.6,0,0.7,0C63.4,115.4,63.4,115.5,63.4,115.7z M63.4,118.3
			c-0.2,0.5-0.6,0.8-1.2,1.2c-0.6,0.3-1.2,0.5-1.5,0.3c-0.5-0.1-0.7-0.3-0.7-0.7c0.1-0.2,0.3-0.5,0.6-0.7c0.2-0.2,0.7-0.5,1-0.7
			c0.5-0.2,0.8-0.3,1.2-0.3c0.3-0.1,0.6-0.1,0.7-0.1C63.6,117.5,63.6,117.8,63.4,118.3z M72.8,116.8c-0.1,0-0.2,0-0.3,0
			s-0.2,0-0.5,0c-0.2,0-0.3,0-0.5-0.1c-0.1,0-0.2,0-0.3-0.1v0.5c0.1,0,0.2,0,0.3,0c0.1,0,0.2,0,0.5,0c0.1,0,0.3,0,0.5,0.1
			c0.1,0,0.2,0,0.3,0.1V116.8z M71.2,118.5c0,0,0.1,0,0.2,0c0.1,0,0.2,0,0.3,0c0.1,0,0.2,0,0.3,0s0.2,0,0.2,0s0.1-0.1,0.1-0.2
			s0.1-0.1,0.1-0.2c0-0.1,0-0.1,0-0.1s0-0.1,0.1-0.1c-0.1,0-0.2,0-0.3,0c-0.1,0-0.2,0-0.5,0c-0.1,0-0.3,0-0.5,0c-0.1,0-0.2,0-0.3,0
			v0.7H71.2z"/>
		<path class="st3" d="M96.8,116.4c0,0.2-0.1,0.6-0.1,0.9c-0.1,0.3-0.1,0.7-0.2,0.9c0,0.2,0,0.5,0,0.7c0,0.2,0,0.5,0,0.8
			s0,0.7,0.1,1.2c0,0.5,0,0.8-0.1,1c-0.1,0.3-0.1,0.6-0.2,0.7c-0.2,0.2-0.5,0.2-0.7,0.2c-0.2,0-0.5-0.2-0.6-0.6s-0.2-0.7-0.2-1
			s0-0.6,0-0.7c-0.1,0-0.2,0-0.3,0.1c-0.1,0-0.3,0-0.5,0.1c-0.2,0-0.3,0-0.5,0c-0.1,0-0.2,0-0.3,0c0,0.1,0,0.3,0,0.5
			c0,0.2,0,0.5-0.1,0.7c0,0.2-0.1,0.5-0.2,0.7c-0.1,0.2-0.2,0.3-0.3,0.5c0.5,0.1,1,0.2,1.9,0.3c0.7,0.1,1.5,0.2,2.6,0.3
			c0.9,0.1,1.7,0.2,2.6,0.2c0.7,0,1.3,0,1.9-0.1c0,0.1,0,0.3-0.1,0.5c-0.1,0.2-0.2,0.5-0.5,0.7s-0.5,0.5-0.6,0.7
			c-0.2,0.2-0.3,0.3-0.3,0.5c-0.5,0.5-1.2,0.8-2,0.9c-0.8,0.1-1.6,0-2.7-0.5c-1-0.5-2-0.8-2.7-1.2c-0.8-0.3-1.4-0.5-2-0.5
			c-0.5-0.1-0.9-0.2-1.6-0.3c-0.7-0.1-1.4-0.2-2.2-0.2c-0.8,0-1.6,0-2.2,0.2c-0.7,0.1-1.2,0.3-1.6,0.6c-0.1,0-0.2,0-0.3-0.1
			c-0.1,0-0.3-0.1-0.5-0.2c-0.1-0.1-0.2-0.2-0.3-0.3c0-0.1,0-0.2,0-0.3c0.1-0.2,0.2-0.5,0.5-0.7c0.2-0.2,0.6-0.5,0.9-0.7
			c0.3-0.2,0.6-0.5,0.8-0.7c0.1-0.2,0.2-0.5,0.2-0.7c0.1-0.2,0.3-0.5,0.7-0.5c0.2-0.1,0.5,0,0.6,0.2c0.1,0.2,0.2,0.5,0.1,0.7
			c-0.1,0.2-0.2,0.5-0.5,0.6c0.1,0,0.3,0,0.7,0c0.2,0,0.6,0,0.9,0.1c0.3,0,0.7,0,0.9,0.1c0.2,0,0.5,0,0.7,0l-0.1-0.5
			c0-0.1,0-0.3,0-0.5c0-0.2,0-0.5,0.1-0.7c0-0.2,0-0.5,0.1-0.6c0-0.1,0-0.3,0-0.5c0-0.2,0-0.5,0-0.7c0-0.3-0.1-0.6-0.1-1
			c-0.1-0.3-0.1-0.7-0.2-0.9c0-0.2-0.1-0.5-0.1-0.7c0-0.2,0.1-0.5,0.2-0.6c0.1-0.1,0.5-0.2,0.8-0.2c0.3,0,0.7-0.1,1-0.1
			c0.3,0,0.6-0.1,0.7-0.2c-0.1,0-0.2-0.1-0.5-0.2c-0.1-0.1-0.3-0.1-0.6-0.2s-0.3-0.2-0.6-0.3c-0.1-0.1-0.2-0.2-0.3-0.3
			c0.1-0.2,0.3-0.5,0.7-0.6c0.2-0.1,0.7-0.2,1.2-0.1s0.8,0.2,1.2,0.5c0.3,0.2,0.6,0.3,0.8,0.5c0.1-0.1,0.2-0.2,0.5-0.3
			c0.1-0.1,0.3-0.2,0.6-0.5c0.2-0.1,0.3-0.2,0.6-0.3c0.1-0.1,0.3-0.1,0.5-0.2c-0.3-0.1-0.8-0.2-1.4-0.2c-0.6,0-1.2,0-2,0
			c-0.7,0-1.4,0.1-2,0c-0.6,0-1-0.1-1.4-0.2l-0.1-0.1l-0.1-0.1c0-0.1-0.1-0.1-0.1-0.2s0-0.1,0-0.2c0.1-0.2,0.3-0.5,0.6-0.7
			c0.2-0.2,0.7-0.3,1.2-0.3s0.9,0,1.4,0.1c0.3,0,0.7,0.1,0.9,0.1c0.3,0,0.7,0.1,1.2,0.1c0.5,0,1,0.1,1.6,0.1c0.7,0,1.3,0.1,1.7,0.1
			c0.5,0,0.9,0,1.3,0.1c0.2,0.2,0.3,0.5,0.3,0.7c0,0.2-0.2,0.5-0.7,0.7c-0.5,0.2-0.9,0.5-1.3,0.7c-0.3,0.2-0.7,0.3-0.8,0.6
			c-0.1,0.1-0.1,0.1-0.2,0.2c-0.1,0.1-0.2,0.2-0.3,0.2c-0.1,0.1-0.2,0.2-0.3,0.2c-0.1,0.1-0.1,0.1-0.2,0.2c0.2,0.1,0.5,0.1,0.8,0.1
			c0.3,0,0.7,0,1,0c0.3,0,0.8,0,1,0c0.3,0,0.6,0.1,0.7,0.1C96.8,116,96.9,116.2,96.8,116.4z M81.9,114.7c0-0.1-0.1-0.1-0.1-0.2
			c0-0.1,0-0.1,0-0.2v-0.1c0.1-0.2,0.3-0.5,0.7-0.7c0.2-0.2,0.7-0.2,1.2-0.2s0.8,0.1,1.2,0.1s0.6,0,0.7,0s0.1,0,0.1,0s0,0,0,0.1
			c0,0,0,0,0,0.1c0,0.2-0.2,0.5-0.5,0.7c-0.2,0.2-0.6,0.5-1,0.7c-0.5,0.2-0.8,0.2-1.2,0.2c-0.3,0-0.6-0.1-0.8-0.1
			C82,114.9,82,114.8,81.9,114.7z M82.6,118.8c0.2-0.2,0.5-0.5,0.9-0.7c0.3-0.2,0.7-0.5,1-0.5c0.3-0.1,0.6-0.1,0.7-0.1
			c0,0.1,0,0.5-0.2,0.8c-0.1,0.3-0.5,0.8-0.9,1.2c-0.5,0.3-0.8,0.6-1.2,0.5c-0.3-0.1-0.6-0.2-0.8-0.6
			C82.1,119.2,82.4,119.1,82.6,118.8z M82.6,116.2c0.1-0.2,0.5-0.3,0.8-0.5c0.3-0.1,0.7-0.2,1-0.2c0.2,0,0.5,0,0.7-0.1
			c0,0.1-0.1,0.5-0.3,0.7c-0.2,0.3-0.5,0.6-0.9,0.9c-0.3,0.2-0.7,0.3-1,0.2c-0.2-0.1-0.5-0.3-0.5-0.6
			C82.2,116.5,82.4,116.4,82.6,116.2z M88.4,122.6C88.4,122.6,88.3,122.6,88.4,122.6C88.3,122.6,88.3,122.6,88.4,122.6
			c-0.1,0.1-0.1,0.1-0.1,0.1c0.1,0,0.3,0,0.6,0s0.6,0,0.8,0.1c0.3,0,0.6,0.1,0.8,0.1c0.2,0,0.5,0.1,0.6,0.1c0-0.1-0.1-0.2-0.1-0.5
			c0-0.1-0.1-0.3-0.1-0.6c0-0.2-0.1-0.5-0.1-0.6s0-0.3,0-0.5c-0.1,0-0.3,0-0.7,0c-0.2,0-0.6,0.1-0.9,0.2c-0.3,0.1-0.6,0.3-0.7,0.6
			C88.5,122.1,88.5,122.4,88.4,122.6L88.4,122.6z M90.9,120.2c0,0,0-0.1,0-0.2s0-0.2,0-0.3c0-0.1,0-0.2,0-0.3c0-0.1,0-0.1,0-0.2
			c-0.1,0-0.3-0.1-0.6-0.1s-0.6,0-0.8,0c-0.2,0.1-0.5,0.2-0.5,0.5c0,0.2,0,0.5,0,0.7h1.9V120.2z M90.4,117.1c-0.2,0-0.6,0-0.8,0.1
			c-0.3,0.1-0.5,0.2-0.3,0.3c0,0.1,0.1,0.3,0.3,0.5c0.1,0,0.2,0,0.3,0c0.1,0,0.2,0,0.3,0s0.2,0,0.3,0c0.1,0,0.2,0,0.3,0v-0.8
			C90.9,117.2,90.6,117.1,90.4,117.1z M93.2,117.9c0.1,0,0.3,0,0.6,0c0.2,0,0.3,0,0.6,0c0.1,0,0.2,0,0.3,0l0.1-0.8
			c-0.1,0-0.3,0-0.6-0.1c-0.2,0-0.6,0-0.8,0c-0.3,0-0.5,0.1-0.6,0.3c-0.1,0.2-0.1,0.3,0,0.6C93,117.9,93.1,117.9,93.2,117.9z
			 M92.8,119.9c0.1,0,0.2,0,0.3,0s0.3,0,0.5,0c0.2,0,0.3,0,0.5,0c0.1,0,0.2,0,0.3,0.1l0.1-0.1c0,0,0-0.1,0-0.2c0-0.1,0-0.2,0-0.2
			c0-0.1,0-0.2,0-0.3c0-0.1,0-0.1,0-0.2c-0.1,0-0.2,0-0.5,0c-0.1,0-0.3,0-0.6,0.1c-0.2,0-0.3,0-0.6,0.1c-0.1,0-0.3,0-0.5,0v0.8H92.8
			z"/>
		<path class="st3" d="M109,120.4c-0.2,0-0.5,0.1-0.7,0.3c-0.2,0.2-0.5,0.3-0.6,0.6c-0.1,0.2-0.2,0.5-0.3,0.7
			c-0.2,0.2-0.5,0.5-0.8,0.8c-0.3,0.2-0.7,0.5-1.2,0.5c-0.5,0.1-0.9,0-1.3-0.2c-0.3-0.2-0.6-0.3-0.8-0.6v-0.3c0.3,0,0.9-0.1,1.4-0.3
			c0.6-0.2,1-0.7,1.5-1.4c0.5-0.7,0.7-1.3,0.8-1.9c0.1-0.6,0.1-1,0.1-1.4V117v-0.1c0-0.1,0-0.1,0-0.1v-0.1c0-0.2,0-0.5-0.1-0.8
			c0-0.3-0.1-0.7-0.2-1c-0.1-0.3-0.2-0.7-0.3-1c-0.1-0.3-0.1-0.6-0.2-0.7c0.1-0.2,0.3-0.5,0.7-0.6c0.3-0.1,0.7-0.1,1.3-0.1
			c0.5,0.1,0.9,0.2,1.3,0.2c0.3,0,0.7,0,0.9,0c0.3,0,0.7,0,0.9,0.2c0.2,0.2,0.3,0.6,0.2,1c-0.1,0.6-0.1,1-0.2,1.5
			c-0.1,0.5-0.1,0.7-0.1,0.9c0,0.6,0,1.2,0,2s0,1.7,0.1,2.8c0,1,0,2,0,2.8c0,0.8-0.1,1.5-0.2,2c0,0.1-0.1,0.2-0.2,0.3
			c-0.1,0.1-0.2,0.1-0.3,0.1c-0.1,0-0.2,0-0.3-0.1c-0.1-0.1-0.2-0.1-0.3-0.2l-0.3-5.7C109.4,120.3,109.2,120.3,109,120.4z
			 M108.4,114.3c0,0.1,0,0.3,0,0.5c0,0.2,0,0.3,0,0.5c0,0.1,0,0.2,0,0.3c0,0,0.1,0,0.2,0c0.1,0,0.2,0,0.3,0c0.1,0,0.2,0,0.3,0
			c0.1,0,0.1,0,0.2,0l0.1-1.9l-1.3,0.1C108.4,114.1,108.4,114.2,108.4,114.3z M108.4,117.6c0,0.1,0,0.3,0,0.6c0,0.2,0,0.5,0,0.7
			c0,0.2,0,0.3-0.1,0.5l1.2-0.1v-2h-1.2C108.4,117.2,108.4,117.4,108.4,117.6z M123.2,126c-0.5,0.5-1.2,0.8-1.9,0.8
			c-0.7,0.1-1.4-0.1-1.9-0.6c-0.6-0.5-0.9-0.9-1.3-1.4c0-0.1-0.1-0.1-0.2-0.2c-0.1-0.1-0.1-0.2-0.2-0.3c-0.1-0.1-0.1-0.2-0.2-0.3
			c-0.1-0.1-0.1-0.2-0.2-0.2c-0.3,0.2-0.7,0.6-1.3,0.7c-0.6,0.2-1.2,0.2-1.9,0c-0.7-0.2-1.2-0.6-1.5-1c-0.3-0.5-0.5-0.8-0.5-1
			c0-0.2,0-0.3,0-0.3s0,0,0-0.1v-0.1c0.2,0.2,0.5,0.3,0.8,0.6c0.3,0.2,0.7,0.3,1.2,0.5c0.5,0.1,0.8,0.1,1.2-0.1
			c0.3-0.1,0.6-0.2,0.8-0.5c-0.1-0.2-0.3-0.5-0.7-0.8c-0.3-0.2-0.7-0.6-1-0.8c-0.3-0.2-0.7-0.5-0.8-0.7c-0.2-0.2-0.3-0.5-0.3-0.6
			c0,0,0-0.1,0-0.2s0-0.1,0.1-0.2c0-0.1,0.1-0.1,0.1-0.2s0.1-0.1,0.1-0.2c0.2,0,0.6,0,0.9-0.1c0.3-0.1,0.8-0.1,1.3-0.3
			c0.5-0.1,0.9-0.2,1.3-0.2c0.3,0,0.7,0,0.9,0c0.2-0.1,0.5-0.1,0.7-0.1c0.2,0,0.3,0.1,0.5,0.5c0.1,0.2,0.1,0.5,0,0.8
			c-0.1,0.2-0.1,0.5-0.2,0.6c0,0.1,0,0.2,0,0.5c0,0.1,0,0.3-0.1,0.6c0,0.2,0,0.5-0.1,0.6c0,0.1,0,0.3,0,0.5c0.3,0.3,0.7,0.7,1.3,1
			c0.5,0.5,1,0.8,1.7,1.2s1.2,0.6,1.6,0.6c0.5,0.1,0.8,0.1,1.2,0.1C124.1,125,123.7,125.5,123.2,126z M121.8,117.1
			c-0.3,0.2-0.8,0.3-1.4,0.3c-0.6,0-1-0.1-1.5-0.2c-0.5-0.1-0.7-0.1-0.9-0.1s-0.6,0-1,0s-0.9,0-1.5,0.1c-0.6,0.1-1.2,0.2-1.5,0.3
			c-0.5,0.1-0.8,0.2-1.2,0.3l-0.1-0.1c0,0-0.1-0.1-0.1-0.2c0-0.1-0.1-0.1-0.1-0.2v-0.1c0-0.1,0-0.3,0.1-0.5c0.1-0.2,0.2-0.3,0.5-0.6
			c0.2-0.1,0.5-0.3,0.7-0.3c0.2-0.1,0.3-0.1,0.5-0.1l-0.3-2.1c0-0.3,0.1-0.7,0.5-0.9c0.2-0.2,0.7-0.5,1.2-0.5c0.6,0,1,0,1.5,0.1
			c0.5,0.1,0.8,0.1,1,0.1c0.1,0.1,0.3,0.1,0.7,0.1c0.3,0,0.7,0,1-0.1c0.3,0,0.6,0.1,0.7,0.3c0.1,0.2,0.1,0.5,0,0.8
			c0,0.1-0.1,0.2-0.1,0.3c0,0.1-0.1,0.3-0.2,0.6c-0.1,0.2-0.1,0.3-0.2,0.6c0,0.1-0.1,0.3-0.1,0.5c0.1,0.1,0.3,0.1,0.6,0.1
			s0.5,0.1,0.8,0.1c0.3,0,0.6,0.1,0.8,0.1c0.2,0.1,0.3,0.1,0.6,0.2C122.4,116.5,122.2,116.9,121.8,117.1z M114.8,115.2
			c0.1,0,0.3,0,0.6,0s0.6,0,0.9,0c0.3,0,0.6,0,0.8-0.1s0.3-0.1,0.6-0.2c0,0,0-0.1,0.1-0.2c0-0.1,0-0.2,0.1-0.3c0-0.1,0-0.2,0.1-0.2
			c0-0.1,0-0.1,0.1-0.2c-0.1,0-0.3,0-0.6,0s-0.6,0-0.9,0c-0.3,0-0.7,0-0.9,0s-0.5,0-0.6,0.1L114.8,115.2z M115.8,119.5
			c0.1,0.1,0.2,0.2,0.3,0.3c0.1,0.1,0.2,0.2,0.3,0.3c0.1,0.1,0.2,0.1,0.2,0.2c0-0.1,0-0.2,0-0.3c0-0.1,0-0.2,0.1-0.5
			c0-0.1,0-0.3,0.1-0.5c0-0.1,0-0.2,0-0.3c-0.1,0-0.2,0-0.3,0c-0.1,0-0.2,0-0.5,0c-0.1,0-0.3,0.1-0.5,0.1c-0.1,0-0.2,0.1-0.3,0.1
			C115.5,119.2,115.6,119.3,115.8,119.5z"/>
		<path class="st3" d="M130.1,119.7v-1.2c0-0.1,0-0.3,0-0.5c0-0.2,0-0.5,0-0.7c0-0.2,0-0.6,0-0.7c0-0.2,0-0.3,0-0.5
			c-0.1,0.1-0.3,0.1-0.6,0.2c-0.2,0-0.5,0-0.8-0.1c-0.2-0.1-0.5-0.3-0.6-0.6c-0.1-0.2-0.2-0.5-0.2-0.7c0,0,0-0.1-0.1-0.1
			c0,0,0-0.1-0.1-0.1c0,0,0-0.1-0.1-0.1c0,0,0,0-0.1,0c0-0.6,0.2-1,0.6-1.5c0.3-0.5,0.9-0.7,1.7-0.7c0.8,0,1.5,0.1,2.1,0.3
			s1,0.3,1.4,0.6c0.2,0.2,0.2,0.5,0.1,0.7c-0.1,0.2-0.3,0.5-0.7,0.7c-0.3,0.2-0.6,0.5-0.7,0.7c-0.1,0.2,0,0.5,0.2,0.7
			c0,0.5,0,1.2,0,1.9s0,1.6-0.1,2.6c0,0.9-0.1,1.7-0.2,2.4c-0.1,0.7-0.2,1.3-0.3,1.7c0,0-0.1,0.1-0.1,0.2s-0.1,0.1-0.1,0.2
			c0,0.1-0.1,0.1-0.1,0.2s-0.1,0.1-0.1,0.2c-0.2-0.2-0.5-0.6-0.6-1c-0.1-0.3-0.2-0.8-0.2-1.4c0-0.5,0-0.9,0-1.3s0-0.7-0.1-0.9
			L130.1,119.7L130.1,119.7z M141.8,120.3c0.1-0.1,0.1-0.2,0.2-0.3c0-0.1,0.1-0.2,0.1-0.3c0-0.1,0-0.2,0-0.2c0-0.1-0.1-0.2-0.2-0.3
			c-0.1-0.1-0.3-0.1-0.6-0.2c-0.2,0-0.5,0-0.6,0s-0.2,0-0.3,0c-0.2,0.3-0.5,0.9-0.8,1.6c-0.3,0.7-0.8,1.4-1.5,2.2
			c-0.7,0.8-1.3,1.3-1.9,1.4c-0.6,0.1-1.2,0.1-1.5,0c-0.1,0-0.1-0.1-0.2-0.1c-0.1,0-0.1-0.1-0.2-0.2c0-0.1-0.1-0.2-0.1-0.2
			c0-0.1,0-0.1,0-0.2c0.2-0.1,0.5-0.3,0.8-0.6c0.3-0.2,0.8-0.7,1.3-1.2c0.5-0.5,0.9-0.9,1.2-1.4c0.3-0.5,0.6-0.8,0.7-1
			c0,0-0.1,0-0.2,0c-0.1,0-0.2,0-0.3,0s-0.2-0.1-0.3-0.2c-0.1-0.1-0.1-0.2-0.1-0.3c0.2-0.3,0.5-0.7,0.8-0.9c0.3-0.3,0.9-0.5,1.5-0.5
			s1.2,0,1.6,0.1s0.8,0.1,1.2,0.2c0.1,0,0.5,0,0.8,0.1c0.3,0,0.7,0.1,1.2,0.2c0.3,0.1,0.6,0.3,0.7,0.7c0,0.2,0,0.6-0.2,0.8
			c-0.3,0.3-0.7,0.8-0.9,1.4c-0.3,0.6-0.6,1.2-0.7,1.9c-0.2,0.7-0.5,1.3-0.6,1.9c-0.2,0.5-0.5,0.9-0.7,1.3c-0.1,0.1-0.3,0.2-0.5,0.2
			c-0.2,0-0.5,0-0.7-0.1c-0.2-0.1-0.3-0.3-0.5-0.6c-0.1-0.2-0.2-0.5-0.2-0.6c0.1-0.2,0.2-0.5,0.3-0.8c0.2-0.3,0.5-0.7,0.7-1
			c0.2-0.5,0.5-0.8,0.7-1c0.1-0.3,0.2-0.6,0.3-0.8C141.7,120.4,141.8,120.4,141.8,120.3z M135.3,113.6c0.2-0.2,0.6-0.3,0.8-0.5
			c0.3-0.1,0.6-0.1,0.9-0.1c0.2,0,0.5,0.1,0.7,0.1c0,0,0.1,0,0.2,0c0.1,0,0.2,0,0.3,0s0.2,0.1,0.3,0.1c0.1,0,0.1,0.1,0.2,0.1
			c-0.2,0-0.6,0.1-0.9,0.3c-0.5,0.2-0.9,0.6-1.5,1c-0.6,0.3-0.9,0.6-1.3,0.3c-0.2-0.1-0.5-0.5-0.5-0.9
			C135,114.1,135.1,113.9,135.3,113.6z M143.4,114.9c-0.1-0.1-0.2-0.3-0.3-0.5c-0.1-0.2-0.2-0.3-0.2-0.5s-0.1-0.2-0.1-0.3
			c0.1-0.2,0.2-0.5,0.5-0.6s0.6-0.1,0.9,0c0.5,0.1,0.8,0.2,1.2,0.2c0.3,0,0.6,0,0.8-0.1h0.1c0,0,0.1,0,0.2-0.1c0.1,0,0.1,0,0.2-0.1
			h0.1c0,0.2-0.1,0.5-0.3,0.8c-0.2,0.3-0.5,0.7-0.9,0.9c-0.5,0.3-0.8,0.5-1,0.6c-0.3,0.1-0.6,0.1-0.7,0.1
			C143.6,115.3,143.6,115.2,143.4,114.9z"/>
		<path class="st3" d="M167.8,115.6c-0.3,0.5-0.8,0.9-1.5,1.3c-0.7,0.3-1.3,0.5-1.9,0.2c-0.6-0.1-0.9-0.3-1.3-0.6
			c-0.2,0-0.6-0.1-0.9-0.2c-0.3-0.1-0.8-0.2-1.3-0.2c-0.5-0.1-0.9-0.1-1.3-0.1s-0.7,0-0.9,0.1c0,0.1-0.1,0.2-0.1,0.3
			c-0.1,0.1-0.1,0.2-0.2,0.3c-0.1,0.1-0.1,0.2-0.2,0.3c0,0.1-0.1,0.1-0.1,0.2c0.2,0.1,0.6,0.1,0.9,0.1c0.3,0,0.8,0,1.4,0s1,0,1.5,0
			c0.5,0,0.8,0.1,1,0.1c0.1,0.2,0.1,0.5,0.1,0.8c0,0.3,0,0.7-0.1,1.2c-0.1,0.5-0.2,0.8-0.2,1.2c-0.1,0.3-0.1,0.6,0,0.8
			c-0.1,0.3-0.1,0.7,0,1.3c0,0.5,0.1,1,0.1,1.7c0,0.6,0,1.2-0.1,1.6s-0.3,0.8-0.7,1c-0.3,0-0.6,0-0.8-0.1c-0.2-0.1-0.3-0.5-0.3-0.9
			c0-0.5-0.1-0.8-0.1-1.2s-0.1-0.6-0.2-0.7c-0.1,0-0.3-0.1-0.6-0.1c-0.2,0-0.5,0-0.7,0s-0.6,0-0.7,0.1c-0.2,0-0.3,0.1-0.6,0.1
			c0,0.1,0,0.3,0,0.6c0,0.2-0.1,0.6-0.2,0.9s-0.3,0.6-0.6,0.8c-0.2,0.1-0.5,0.2-0.7,0.2l-0.1-0.1c-0.1,0-0.1-0.1-0.1-0.1v-0.1v-0.1
			c0-0.3,0.1-0.7,0.2-1.3c0.1-0.5,0.1-1.2,0.2-1.9c0.1-0.7,0.1-1.3,0.1-1.9c0-0.6,0-1,0-1.4V120c0,0,0-0.1-0.1-0.1
			c0,0,0-0.1-0.1-0.1v-0.1c-0.3,0.2-0.7,0.6-1.2,0.9s-1,0.6-1.6,0.8c-0.6,0.2-1.2,0.3-1.6,0.3s-0.8-0.1-1.2-0.2c0,0,0-0.1-0.1-0.1
			c0,0,0-0.1-0.1-0.1v-0.1v-0.1c0.1-0.2,0.5-0.5,0.7-0.6c0.3-0.1,0.7-0.3,1.3-0.5c0.5-0.1,0.9-0.3,1.3-0.6c0.3-0.2,0.7-0.6,0.9-0.9
			c0.1-0.1,0.2-0.3,0.3-0.5c0.1-0.2,0.2-0.5,0.5-0.7c0.1-0.2,0.2-0.5,0.3-0.7c0.1-0.2,0.2-0.3,0.3-0.5c-0.3,0-0.8,0-1.3,0.1
			c-0.5,0.1-1,0.2-1.7,0.5c-0.7,0.2-1.3,0.3-1.7,0.5c-0.5,0.1-0.9,0.1-1.3,0.1c-0.1,0-0.1-0.1-0.2-0.1c-0.1-0.1-0.1-0.1-0.2-0.3
			c0-0.1-0.1-0.2-0.1-0.3c0-0.1,0-0.1-0.1-0.2c0-0.3,0.1-0.6,0.5-0.9c0.2-0.3,0.7-0.5,1.3-0.7c0.6-0.1,1-0.2,1.5-0.2
			c0.5,0,0.8-0.1,1-0.1c0.1,0,0.3-0.1,0.7-0.1c0.2,0,0.6,0,0.9-0.1c0.3,0,0.7,0,1-0.1c0.3,0,0.6-0.1,0.7-0.2v-0.1c0,0,0-0.1,0.1-0.1
			c0-0.1,0-0.1,0.1-0.2c0-0.1,0-0.1,0-0.2l-0.1-0.1c0-0.3,0.2-0.6,0.6-0.7c0.3-0.2,0.7-0.2,1.3,0c0.5,0.2,0.7,0.5,0.8,0.8
			c0,0.3-0.1,0.7-0.3,0.9c0.5,0,1,0.1,1.7,0.1c0.7,0,1.5,0.1,2.6,0.1c0.9,0,1.7,0,2.6,0c0.7,0,1.3,0,1.7,0.1
			C168.2,114.7,168.1,115.2,167.8,115.6z M160.7,122.2c0-0.1,0-0.2,0-0.2c0-0.1,0-0.2,0-0.3c0-0.1,0-0.1,0-0.2c-0.1,0-0.5,0-0.7-0.1
			c-0.3,0-0.7,0-1,0c-0.3,0-0.6,0.1-0.7,0.3c-0.1,0.2-0.1,0.5-0.1,0.7c0,0,0,0,0,0.1c0,0,0,0,0,0.1c0.1,0,0.3,0,0.6,0
			c0.2,0,0.5,0,0.7,0c0.2,0,0.6,0,0.7,0c0.2,0,0.3-0.1,0.6-0.1C160.7,122.5,160.7,122.4,160.7,122.2z M160.5,119
			c-0.1,0-0.2,0-0.5-0.1c-0.2,0-0.3,0-0.7-0.1c-0.2,0-0.5,0-0.7,0c-0.2,0-0.3,0-0.5,0c-0.1,0.2-0.1,0.5,0,0.7
			c0.1,0.2,0.3,0.3,0.7,0.3s0.7,0.1,1,0.1c0.3,0,0.6,0,0.7,0v-0.8L160.5,119z"/>
		<path class="st3" d="M182.8,123.8c0.3,0,0.7,0,1.2,0s0.8-0.1,1.2-0.1c0.3,0,0.6-0.1,0.8-0.1c-0.3,0.5-0.7,0.8-1.3,1
			c-0.5,0.3-1,0.5-1.7,0.6c-0.7,0.1-1.3,0.1-1.7,0.2c-0.5,0-0.9,0.1-1.3,0.3c-0.1,0-0.2,0-0.5,0c-0.2,0-0.3,0-0.6,0
			c-0.2,0-0.3-0.1-0.5-0.2c-0.1-0.1-0.2-0.2-0.2-0.3c0.1-0.1,0.2-0.2,0.5-0.3c0.2-0.1,0.5-0.2,0.7-0.5c0.3-0.1,0.5-0.3,0.7-0.6
			c0.1-0.2,0.2-0.5,0.2-0.7c0.1-0.1,0.1-0.3,0.2-0.7c0.1-0.2,0.1-0.6,0.1-0.9c0-0.3,0-0.7,0-0.9s0-0.5,0-0.7c0-0.3,0-0.7-0.1-1.3
			c0-0.5-0.1-1-0.2-1.7c-0.1-0.7-0.1-1.3-0.2-1.7c0-0.5-0.1-0.9-0.1-1.3c-0.2,0.1-0.5,0.2-0.7,0.5c-0.3,0.2-0.6,0.5-0.7,0.9
			c-0.2,0.3-0.2,0.7-0.1,0.9c0.1,0.2,0.2,0.5,0.5,0.7c0.1,0.3,0.1,0.8,0,1.3c-0.1,0.6-0.3,1-0.9,1.6c-0.5,0.6-1,1-1.5,1.3
			c-0.5,0.2-0.9,0.3-1.2,0.5c-0.1,0.2-0.1,0.5-0.2,0.9c0,0.3-0.1,0.8-0.1,1.3c-0.1,0.5-0.2,0.9-0.3,1.3c-0.1,0.3-0.3,0.6-0.6,0.8
			c0,0-0.1-0.1-0.1-0.2s-0.1-0.2-0.1-0.2c0-0.1,0-0.2,0-0.3c0-0.1,0-0.1,0-0.2c0-0.1,0-0.3,0-0.5c0-0.2,0-0.5,0-0.7
			c0-0.2,0-0.5,0-0.6c0-0.1,0-0.3,0-0.5V122v-1.6c0-0.3,0-0.7-0.1-1.3c0-0.5-0.1-1.2-0.2-1.9c-0.1-0.7-0.2-1.3-0.3-1.9
			c-0.1-0.5-0.2-0.9-0.3-1.3c0-0.2,0.1-0.7,0.2-1c0.2-0.5,0.5-0.8,0.8-1.2c0.3-0.2,0.7-0.3,0.9-0.1c0.2,0.2,0.5,0.6,0.5,0.9
			c0,0.1,0,0.3,0,0.6c0,0.2,0,0.6,0,0.9s0,0.7,0,0.9c0,0.2,0,0.5,0,0.7c0.2,0,0.3,0,0.6-0.1c0.2-0.1,0.5-0.2,0.6-0.6
			c0.2-0.2,0.3-0.6,0.5-0.8c0.1-0.2,0.1-0.5,0.2-0.7c0,0-0.1,0-0.2,0c-0.1,0-0.2-0.1-0.5-0.1c-0.1-0.1-0.2-0.2-0.3-0.3
			c-0.1-0.1-0.1-0.2-0.1-0.3c0-0.2,0.1-0.3,0.3-0.5c0.2-0.1,0.5-0.1,0.8-0.1c0.3,0,0.7,0.1,0.9,0.1c0.2,0,0.5,0,0.6,0
			c0.1,0,0.2,0,0.3,0c0.1,0,0.2,0,0.5,0.1c0.1,0,0.2,0.1,0.3,0.2s0.1,0.1,0.1,0.2c0.2-0.2,0.5-0.5,0.8-0.7c0.3-0.1,0.7-0.2,1.2-0.1
			c0.5,0.1,0.9,0.1,1.3,0.1s0.7,0,0.9-0.1c0.2,0,0.6,0,0.9,0s0.8,0,1.3,0.1c0.5,0.1,0.9,0.2,1.3,0.3c0.3,0.1,0.7,0.3,0.9,0.5
			c0.1-0.1,0.3-0.3,0.6-0.5c0.2-0.2,0.6-0.2,0.9-0.2s0.6,0.1,0.7,0.3c0.1,0.2,0.1,0.5,0.1,0.7c-0.1,0.2-0.2,0.5-0.5,0.7
			c-0.2,0.2-0.5,0.6-0.8,0.9c-0.3,0.3-0.6,0.7-0.8,0.9c-0.2,0.2-0.3,0.5-0.5,0.7c0,0.1-0.1,0.3-0.1,0.6c0,0.2-0.1,0.6-0.2,0.9
			c-0.1,0.3-0.2,0.5-0.5,0.6c-0.2,0.1-0.5,0.1-0.7,0h-0.1c0,0-0.1,0-0.2,0c-0.1,0-0.1,0-0.2,0h-0.1c0.2,0.2,0.6,0.6,0.9,0.9
			c0.3,0.3,0.8,0.8,1.4,1.4c0.6,0.6,1,0.9,1.4,1.3c0.5,0.3,0.8,0.5,1,0.6c0.1,0.1,0.3,0.2,0.5,0.2c0.2,0.1,0.3,0.2,0.6,0.2
			c0.2,0.1,0.5,0.1,0.6,0.2c0.1,0,0.3,0.1,0.3,0.1c-0.2,0.3-0.6,0.6-0.9,0.9c-0.3,0.3-0.8,0.6-1.4,0.7c-0.6,0.1-1,0.2-1.4,0.1
			c-0.5,0-0.8-0.1-1-0.1c-0.1-0.2-0.3-0.6-0.5-0.9c-0.2-0.3-0.5-0.8-0.7-1.4c-0.2-0.6-0.6-1-0.8-1.4c-0.3-0.5-0.6-0.8-0.8-1
			c-0.1,0-0.3,0.1-0.5,0.3c-0.2,0.1-0.5,0.3-0.7,0.5c-0.2,0.2-0.5,0.3-0.7,0.3c-0.2,0-0.3,0-0.5,0l-0.1-0.3c0.2-0.1,0.3-0.3,0.6-0.7
			c0.2-0.2,0.5-0.6,0.7-0.9c0.2-0.3,0.5-0.6,0.7-0.8c0.2-0.2,0.5-0.3,0.6-0.5c-0.2,0-0.5,0-0.7,0c-0.2,0-0.6,0-0.9,0s-0.7,0-0.9,0.1
			c-0.2,0-0.5,0.1-0.7,0.1c0,0.2,0,0.6-0.1,0.9c0,0.3,0,0.8,0,1.4c0,0.6-0.1,0.9-0.1,1.4c-0.1,0.3-0.1,0.7-0.2,0.9
			C182.2,123.8,182.4,123.8,182.8,123.8z M175.4,118.2c0,0.2,0,0.5,0,0.8s0,0.6,0,0.8c0,0.2,0,0.5,0,0.6c0.2,0,0.5-0.1,0.7-0.3
			c0.2-0.1,0.5-0.5,0.8-0.7c0.2-0.3,0.3-0.6,0.5-0.9c0-0.2,0.1-0.5,0-0.7c0-0.1-0.1-0.3-0.2-0.5c-0.1-0.1-0.3-0.1-0.6-0.1
			c-0.2,0-0.5,0.1-0.6,0.2c-0.2,0.1-0.3,0.1-0.5,0.2C175.6,117.7,175.4,117.9,175.4,118.2z M182.7,114.5c0,0.1-0.1,0.2-0.1,0.3
			c0,0.1,0,0.2,0,0.3c0,0.1,0,0.2,0,0.2c0.2,0,0.6,0,0.9-0.1s0.8-0.1,1.3-0.2c0.5,0,0.9,0,1.3,0.1c0.3,0.1,0.6,0.2,0.8,0.3
			c-0.1,0.2-0.2,0.3-0.5,0.5s-0.5,0.2-0.9,0.2c-0.3,0-0.7,0-0.9,0c-0.2,0-0.5,0-0.6,0s-0.2,0-0.2,0c-0.1,0-0.2,0-0.3,0
			c-0.1,0-0.2,0-0.3,0s-0.2,0-0.2,0c-0.1,0.1-0.1,0.2-0.2,0.3c0,0.1-0.1,0.3-0.1,0.5c0,0.2,0,0.3,0,0.6c0,0.2,0,0.3,0,0.5
			c0.2-0.1,0.6-0.1,0.9-0.2c0.3-0.1,0.8-0.1,1.3-0.2c0.5-0.1,0.9-0.1,1.3-0.2c0.3-0.1,0.7-0.1,0.9-0.1c0-0.2,0.1-0.5,0.1-0.7
			c0-0.2,0.1-0.6,0.2-0.9c0.1-0.3,0.2-0.7,0.5-0.9c0.2-0.2,0.3-0.5,0.6-0.7c-0.3,0-0.7-0.1-1.2-0.2c-0.5-0.1-1-0.1-1.6-0.1
			s-1.2,0-1.5,0.1c-0.5,0.1-0.8,0.1-1,0.2C182.7,114.2,182.7,114.3,182.7,114.5z"/>
		<path class="st3" d="M207.3,124.3c-0.3,0-0.8-0.1-1.4-0.3c-0.6-0.2-1-0.3-1.5-0.5c-0.5-0.1-0.8-0.2-1.2-0.2
			c-0.1,0-0.5,0.1-0.8,0.5c-0.3,0.2-0.9,0.5-1.5,0.7c-0.6,0.2-1,0.2-1.3,0c-0.2-0.2-0.5-0.6-0.5-1c0-0.3,0.1-0.7,0.5-1
			c0.2-0.5,0.7-0.9,1.3-1.4c0.6-0.6,1-1,1.5-1.4c0.5-0.5,0.8-0.8,0.9-1c0.3-0.5,0.8-0.7,1.6-0.7c0.7,0,1.5,0.6,2.3,1.6
			c0.8,1,1.3,2,1.3,2.9c0.1,0.9-0.1,1.5-0.5,1.9C208,124.3,207.7,124.3,207.3,124.3z M203.9,120.5c-0.1,0.2-0.2,0.5-0.3,0.6
			c-0.1,0.2-0.2,0.3-0.2,0.3c-0.1,0.1-0.1,0.1-0.2,0.2c0.2,0,0.5,0,0.7,0.1c0.2,0,0.6,0,0.9,0.1c0.3,0,0.7,0,0.9,0.1
			c0.2,0,0.5,0,0.6,0.1c0-0.2,0-0.5-0.1-0.9c-0.1-0.3-0.3-0.8-0.6-1.2c-0.3-0.3-0.6-0.6-0.8-0.5c-0.2,0-0.3,0.1-0.5,0.3
			C204.3,120,204.2,120.3,203.9,120.5z M209.4,116.7c-0.2,0-0.5-0.2-0.6-0.5c-0.1-0.2-0.1-0.5-0.1-0.7c0-0.1,0.1-0.5,0.2-0.8
			c0.1-0.3,0.2-0.6,0.5-0.7c0.2-0.1,1-0.6,1.5-0.5c0.5,0.1,1.5,0.2,1,0.2c-0.2,0,0.3,0.1,0.8,0h0.1c0,0,0.1,0,0.2-0.1
			c0.1,0,0.1-0.1,0.2-0.1c0.1,0,0.1,0,0.1,0c0,0.2-0.1,0.6-0.2,0.9c-0.2,0.3-0.5,0.7-0.9,1.2c-0.5,0.3-0.8,0.7-1.2,0.8
			c-0.3,0.1-0.7,0.3-0.8,0.3C209.9,116.8,209.8,116.7,209.4,116.7z M196.5,116.8c-0.2,0-0.5-0.2-0.7-0.5c-0.2-0.2-0.1-0.5-0.2-0.7
			c0-0.1,0.1-0.5,0.2-0.8c0.1-0.3,0.2-0.6,0.6-0.7c0.3-0.1,1.3-0.6,1.9-0.6c0.6,0,1.9,0.2,1.4,0.1c-0.2,0,0.3,0.1,0.9,0h0.1
			c0.1,0,0.1-0.1,0.2-0.1c0.1,0,0.2-0.1,0.2-0.1c0.1,0,0.1,0,0.1,0c0,0.2-0.1,0.6-0.3,0.9c-0.2,0.3-0.6,0.8-1.2,1.2
			c-0.6,0.5-1,0.7-1.5,0.8c-0.5,0.1-0.8,0.3-1,0.5C197.2,116.9,197,116.8,196.5,116.8z"/>
		<path class="st3" d="M223.1,115c0.8-0.1,1.9-0.2,2.9-0.3c1.2-0.1,2.1-0.1,2.9-0.1c0.8,0,1.5,0,2.1,0c0,0.1,0.1,0.3,0.1,0.7
			c0,0.2-0.1,0.6-0.3,0.8c-0.2,0.2-0.5,0.5-0.7,0.5s-0.5,0-0.7,0c-0.6,0-1.3,0-2.2,0c-0.8,0-1.9,0.1-3,0.2c-1.2,0.1-2.2,0.3-3.1,0.5
			c-0.9,0.2-1.6,0.3-2.2,0.6h-0.1c0,0-0.1,0-0.1-0.1l-0.1-0.1v-0.1c0-0.2,0-0.6,0.1-0.8c0.1-0.3,0.3-0.6,0.7-0.9
			c0.3-0.2,0.6-0.5,0.9-0.5c0.3-0.1,0.6-0.1,0.7-0.1C221.6,115.3,222.3,115.2,223.1,115z M221.4,122c0-0.1,0-0.2,0.1-0.3
			c0-0.1,0-0.2,0.1-0.3c0-0.1,0-0.2,0-0.2c0-0.1,0-0.2-0.1-0.3c0-0.1,0-0.2-0.1-0.5c0-0.1,0-0.3-0.1-0.5c0-0.1-0.1-0.2-0.1-0.3
			c0-0.3,0.1-0.7,0.3-0.9c0.2-0.2,0.6-0.5,1.2-0.5c0.6,0,1,0,1.4,0c0.5,0,0.7,0,0.9-0.1c0.3-0.1,0.7-0.1,1.2-0.1s1,0.1,1.6,0.1
			c0.6,0.1,1.2,0.1,1.6,0c0.5-0.1,0.8-0.2,1.2-0.5c0.2,0.1,0.3,0.3,0.3,0.6c0.1,0.2,0,0.6-0.1,0.9s-0.3,0.7-0.5,1s-0.2,0.6-0.2,0.7
			s0,0.3-0.1,0.7s-0.3,0.6-0.6,0.9c-0.3,0.3-0.6,0.5-0.9,0.5s-0.6,0-0.7-0.1c-0.3,0-0.8,0-1.4,0c-0.6,0-1.2,0.1-2,0.2
			c-0.7,0.1-1.4,0.2-2,0.2c-0.6,0.1-1,0.1-1.4,0.1h-0.1c0,0-0.1,0-0.1-0.1l-0.1-0.1v-0.1c0-0.1,0-0.2,0-0.3c0-0.1,0.1-0.2,0.2-0.3
			c0.1-0.1,0.2-0.2,0.3-0.2s0.2-0.1,0.2-0.1C221.4,122.2,221.4,122.1,221.4,122z M235.2,116.7c-0.1,0.8-0.2,1.7-0.3,2.8
			c-0.1,1-0.1,2-0.1,2.8c0,0.8,0,1.4,0.1,2c-0.1,0.5-0.5,0.8-0.8,1.2c-0.3,0.3-0.8,0.6-1.4,0.6s-1.2-0.1-1.5-0.3
			c-0.5-0.2-0.8-0.5-1-0.7c-0.1,0-0.1-0.1-0.2-0.2c-0.1-0.1-0.1-0.2-0.2-0.3c0-0.1-0.1-0.2-0.1-0.3c0-0.1,0-0.1,0-0.2v-0.5
			c0.1,0,0.3,0.1,0.7,0.1c0.2,0,0.6-0.1,0.9-0.3c0.3-0.2,0.5-0.5,0.6-0.7c0.1-0.2,0.1-0.6,0.1-0.7c0.1-0.5,0.2-0.9,0.3-1.5
			c0.1-0.6,0.3-1.3,0.5-2.1c0.2-0.8,0.3-1.5,0.6-2.1c0.1-0.6,0.3-1.2,0.5-1.5c-0.7-0.1-1.5-0.3-2.6-0.5c-1-0.1-2.2-0.2-3.6-0.1
			c-1.4,0-2.6,0.1-3.6,0.2c-1,0.1-1.9,0.1-2.6,0.2c0,0-0.1,0-0.2,0c-0.1,0-0.2-0.1-0.3-0.1c-0.1-0.1-0.2-0.1-0.2-0.2
			s-0.1-0.1-0.1-0.2c0-0.5,0.2-0.8,0.5-1.2c0.3-0.3,0.8-0.5,1.5-0.5c0.7,0,1.3,0,1.9,0.1c0.5,0.1,0.9,0.1,1.2,0.1c0.5,0,1,0,1.7,0
			c0.7,0,1.5,0,2.4,0.1c0.9,0,1.7,0.1,2.6,0.3c0.7,0.1,1.2,0.3,1.5,0.3c0.2,0.1,0.3,0.1,0.3,0.1s0,0,0.1,0c0,0,0,0,0.1,0
			c0.1-0.3,0.3-0.5,0.7-0.6c0.3-0.1,0.6,0,0.9,0.3c0.3,0.3,0.5,0.7,0.3,1c-0.1,0.3-0.2,0.7-0.5,0.9
			C235.5,115.2,235.4,115.8,235.2,116.7z M222.7,120.4c0,0.1-0.1,0.3-0.1,0.6c0,0.2,0,0.5,0,0.6c0,0.1,0,0.3-0.1,0.5
			c0.3,0,0.7-0.1,1.3-0.1c0.5,0,1-0.1,1.7-0.1c0.7-0.1,1.3-0.1,1.7-0.2s0.9-0.1,1.3-0.2c0.1-0.1,0.1-0.2,0.2-0.3
			c0.1-0.1,0.2-0.3,0.2-0.5c0.1-0.2,0.1-0.3,0.2-0.6c0-0.1,0.1-0.3,0.1-0.5c-0.3,0-0.8,0-1.4,0s-1.2,0-1.9,0.1
			c-0.7,0-1.4,0.1-1.9,0.2c-0.6,0.1-0.9,0.1-1.4,0.2C222.8,120,222.7,120.3,222.7,120.4z"/>
	</g>
</g>
</svg>
